<svg id="Layer_1" data-name="Layer 1" xmlns="http://www.w3.org/2000/svg" xmlns:xlink="http://www.w3.org/1999/xlink" viewBox="0 0 814 552"><defs><style>.cls-1,.cls-3{fill:none;}.cls-2{clip-path:url(#clip-path);}.cls-3{stroke:gray;stroke-miterlimit:10;}.cls-4{font-size:12px;fill:#1d1d1b;font-family:KozGoPro-ExtraLight-83pv-RKSJ-H, Kozuka Gothic Pro;}</style><clipPath id="clip-path"><rect class="cls-1" x="85.11" y="246.66" width="567.01" height="180.27"/></clipPath></defs><title>housing_costs</title><g class="cls-2"><polyline class="cls-3" points="94.24 423.16 97.62 424.03 101.49 422.28 105.62 424.78 110.49 423.53 112.74 422.28 116.49 422.28 123.62 425.41 131.74 423.85 140.24 419.78 152.74 412.41 168.37 398.16 181.24 384.03 194.99 357.91 204.99 341.03 213.87 334.03 219.24 331.91 235.12 343.03 242.24 346.03 257.87 365.91 267.74 371.41 306.74 376.41 321.99 384.16 338.87 382.28 349.49 389.03 378.12 382.91 418.87 348.53 425.87 339.16 429.62 339.91 457.24 295.53 479.12 264.91 483.12 262.28 489.87 254.16 493.74 254.16 497.74 255.16 499.99 256.66 504.1 260.16 506.12 262.03 511.24 267.03 515.74 273.28 520.99 282.16 524.37 289.03 527.49 295.41 528.49 297.03 531.74 295.41 532.87 295.41 539.74 306.91 546.24 311.66 553.12 312.78 557.87 314.78 562.62 319.28 581.74 337.53 589.62 338.28 597.74 338.28 617.37 327.91 627.99 324.78 643.12 324.66"/></g><text class="cls-4" transform="translate(648.96 326.93)">new york</text></svg>