<svg id="Layer_1" data-name="Layer 1" xmlns="http://www.w3.org/2000/svg" xmlns:xlink="http://www.w3.org/1999/xlink" viewBox="0 0 820.98 408.63"><defs><style>.cls-1,.cls-2{fill:none;}.cls-2{stroke:#20c1c9;stroke-miterlimit:10;stroke-width:2px;}.cls-3{opacity:0.75;}.cls-4{clip-path:url(#clip-path);}.cls-5{font-size:12px;fill:#1d1d1b;}.cls-10,.cls-5{font-family:KozGoPro-ExtraLight-83pv-RKSJ-H, Kozuka Gothic Pro;}.cls-6{clip-path:url(#clip-path-2);}.cls-7{clip-path:url(#clip-path-3);}.cls-8{clip-path:url(#clip-path-4);}.cls-9{clip-path:url(#clip-path-5);}.cls-10{font-size:15px;fill:#20c1c9;}</style><clipPath id="clip-path"><rect class="cls-1" x="710.01" y="139.15" width="57.68" height="24.01"/></clipPath><clipPath id="clip-path-2"><rect class="cls-1" x="710.01" y="71.11" width="57.68" height="24.01"/></clipPath><clipPath id="clip-path-3"><rect class="cls-1" x="710.01" y="202.92" width="57.68" height="24.01"/></clipPath><clipPath id="clip-path-4"><rect class="cls-1" x="710.01" y="272.37" width="57.68" height="24.01"/></clipPath><clipPath id="clip-path-5"><rect class="cls-1" x="710.01" y="336.15" width="57.68" height="24.01"/></clipPath></defs><title>whats_not_driving_costs</title><polyline class="cls-2" points="292.18 165.68 321.94 116.07 348.87 155.75 388.56 179.85 401.31 168.51 412.65 165.68 419.74 157.17 431.08 172.76 445.25 169.93 446.67 141.58 455.17 154.34 465.09 155.75 467.93 165.68 472.18 174.18 479.27 179.85 486.35 171.34 487.77 198.28 492.02 208.2 496.27 215.28 503.36 220.95 503.36 211.03 513.28 220.95 516.12 212.45 520.37 220.95 548.72 253.55 552.97 267.72 560.05 267.72 565.72 276.23 582.73 284.73 591.24 293.24 608.24 293.24 623.84 294.65 632.34 298.9 633.76 307.41 647.93 307.41 657.85 318.75 673.44 318.75 689.03 318.75 697.53 330.09"/><g class="cls-3"><g class="cls-4"><text class="cls-5" transform="translate(730.84 155.68)">8%</text></g></g><g class="cls-3"><g class="cls-6"><text class="cls-5" transform="translate(727.63 87.65)">10%</text></g></g><g class="cls-3"><g class="cls-7"><text class="cls-5" transform="translate(730.84 219.46)">6%</text></g></g><g class="cls-3"><g class="cls-8"><text class="cls-5" transform="translate(730.84 288.91)">4%</text></g></g><g class="cls-3"><g class="cls-9"><text class="cls-5" transform="translate(730.84 352.69)">2%</text></g></g><text class="cls-10" transform="translate(465.69 106.23)">transportation costs,</text><text class="cls-10" transform="translate(436.9 124.23)">share of national income</text><polyline class="cls-2" points="291.3 165.99 321.06 116.38 347.99 156.07 387.67 180.16 400.43 168.82 411.77 165.99 418.85 157.49 430.19 173.07 444.37 170.24 445.78 141.9 454.29 154.65 464.21 156.07 467.04 165.99 471.3 174.49 478.38 180.16 485.47 171.66 486.89 198.59 491.14 208.51 495.39 215.59 502.48 221.26 502.48 211.34 512.4 221.26 515.23 212.76 519.48 221.26 547.83 253.86 552.08 268.04 559.17 268.04 564.84 276.54 581.85 285.04 590.35 293.55 607.36 293.55 622.95 294.97 631.45 299.22 632.87 307.72 647.04 307.72 656.96 319.06 672.55 319.06 688.14 319.06 696.65 330.4"/></svg>