<svg id="Layer_1" data-name="Layer 1" xmlns="http://www.w3.org/2000/svg" xmlns:xlink="http://www.w3.org/1999/xlink" viewBox="0 0 820.98 408.63"><defs><style>.cls-1,.cls-2{fill:none;}.cls-2{stroke:#20c1c9;stroke-miterlimit:10;stroke-width:2px;}.cls-3{opacity:0.7;}.cls-4{clip-path:url(#clip-path);}.cls-5{font-size:12px;fill:#1d1d1b;}.cls-11,.cls-5{font-family:KozGoPro-ExtraLight-83pv-RKSJ-H, Kozuka Gothic Pro;}.cls-6{clip-path:url(#clip-path-2);}.cls-7{clip-path:url(#clip-path-3);}.cls-8{clip-path:url(#clip-path-4);}.cls-9{clip-path:url(#clip-path-5);}.cls-10{clip-path:url(#clip-path-6);}.cls-11{font-size:15px;fill:#20c1c9;}</style><clipPath id="clip-path"><rect class="cls-1" x="712.15" y="124.2" width="57.68" height="24.01"/></clipPath><clipPath id="clip-path-2"><rect class="cls-1" x="712.15" y="71.05" width="57.68" height="24.01"/></clipPath><clipPath id="clip-path-3"><rect class="cls-1" x="712.15" y="174.51" width="57.68" height="24.01"/></clipPath><clipPath id="clip-path-4"><rect class="cls-1" x="712.15" y="229.79" width="57.68" height="24.01"/></clipPath><clipPath id="clip-path-5"><rect class="cls-1" x="712.15" y="280.1" width="57.68" height="24.01"/></clipPath><clipPath id="clip-path-6"><rect class="cls-1" x="712.15" y="336.09" width="57.68" height="24.01"/></clipPath></defs><title>whats_not_driving_costs</title><polyline class="cls-2" points="27.93 135.91 60.53 114.65 95.96 124.57 127.14 104.73 161.16 114.65 189.5 171.34 229.19 179.85 257.54 179.85 291.55 226.62 325.57 177.01 356.75 199.69 385.09 276.22 423.36 318.74 450.29 222.37 484.31 230.87 514.07 284.73 546.67 276.22 580.68 284.73 614.7 305.99"/><g class="cls-3"><g class="cls-4"><text class="cls-5" transform="translate(728.69 140.74)">2.5%</text></g></g><g class="cls-3"><g class="cls-6"><text class="cls-5" transform="translate(731.9 87.59)">3.%</text></g></g><g class="cls-3"><g class="cls-7"><text class="cls-5" transform="translate(732.98 191.05)">2%</text></g></g><g class="cls-3"><g class="cls-8"><text class="cls-5" transform="translate(728.69 246.33)">1.5%</text></g></g><g class="cls-3"><g class="cls-9"><text class="cls-5" transform="translate(732.98 296.64)">1%</text></g></g><g class="cls-3"><g class="cls-10"><text class="cls-5" transform="translate(731.9 352.63)">.5%</text></g></g><text class="cls-11" transform="translate(277.81 136.23)">US population growth</text><rect class="cls-1" x="231.78" y="117.3" width="228.29" height="29.26"/></svg>