<svg id="Layer_1" data-name="Layer 1" xmlns="http://www.w3.org/2000/svg" xmlns:xlink="http://www.w3.org/1999/xlink" viewBox="0 0 820.98 408.63"><defs><style>.cls-1,.cls-3{fill:none;}.cls-2{clip-path:url(#clip-path);}.cls-3{stroke:gray;stroke-miterlimit:10;}.cls-4{opacity:0.8;}.cls-5{clip-path:url(#clip-path-2);}.cls-20,.cls-6{font-size:12px;}.cls-6{fill:#1d1d1b;font-family:KozGoPro-ExtraLight-83pv-RKSJ-H, Kozuka Gothic Pro;}.cls-7{clip-path:url(#clip-path-3);}.cls-8{clip-path:url(#clip-path-4);}.cls-9{clip-path:url(#clip-path-5);}.cls-10{clip-path:url(#clip-path-6);}.cls-11{clip-path:url(#clip-path-7);}.cls-12{clip-path:url(#clip-path-8);}.cls-13{clip-path:url(#clip-path-9);}.cls-14{clip-path:url(#clip-path-10);}.cls-15{clip-path:url(#clip-path-11);}.cls-16{clip-path:url(#clip-path-12);}.cls-17{clip-path:url(#clip-path-13);}.cls-18{clip-path:url(#clip-path-14);}.cls-19{clip-path:url(#clip-path-15);}.cls-20{opacity:0.9;font-family:MyriadPro-Regular, Myriad Pro;}.cls-21{letter-spacing:-0.01em;}.cls-22{letter-spacing:0em;}.cls-23{letter-spacing:-0.01em;}.cls-24{letter-spacing:0em;}</style><clipPath id="clip-path"><rect class="cls-1" x="201.38" y="101.45" width="489.06" height="213.57"/></clipPath><clipPath id="clip-path-2"><rect class="cls-1" x="13.63" y="118.98" width="57.68" height="24.01"/></clipPath><clipPath id="clip-path-3"><rect class="cls-1" x="13.63" y="194.22" width="57.68" height="24.01"/></clipPath><clipPath id="clip-path-4"><rect class="cls-1" x="13.63" y="266.61" width="57.68" height="24.01"/></clipPath><clipPath id="clip-path-5"><rect class="cls-1" x="180.56" y="368.74" width="57.68" height="39.18"/></clipPath><clipPath id="clip-path-6"><rect class="cls-1" x="110.56" y="368.74" width="57.68" height="39.18"/></clipPath><clipPath id="clip-path-7"><rect class="cls-1" x="40.56" y="368.74" width="57.68" height="39.18"/></clipPath><clipPath id="clip-path-8"><rect class="cls-1" x="247.17" y="369.45" width="57.68" height="39.18"/></clipPath><clipPath id="clip-path-9"><rect class="cls-1" x="313.08" y="368.74" width="57.68" height="39.18"/></clipPath><clipPath id="clip-path-10"><rect class="cls-1" x="381.11" y="368.74" width="57.68" height="39.18"/></clipPath><clipPath id="clip-path-11"><rect class="cls-1" x="447.01" y="369.45" width="57.68" height="39.18"/></clipPath><clipPath id="clip-path-12"><rect class="cls-1" x="512.21" y="369.45" width="57.68" height="39.18"/></clipPath><clipPath id="clip-path-13"><rect class="cls-1" x="579.53" y="369.45" width="57.68" height="39.18"/></clipPath><clipPath id="clip-path-14"><rect class="cls-1" x="645.44" y="368.74" width="57.68" height="39.18"/></clipPath><clipPath id="clip-path-15"><rect class="cls-1" x="13.63" y="46.7" width="57.68" height="24.01"/></clipPath></defs><title>whats_not_driving_costs</title><g class="cls-2"><path class="cls-3" d="M210.74,305.39S240,275.19,245,275.19,266.71,269,266.71,269l11.69,4.44s13.37-14.21,18.38-14.21,12.53,5.33,12.53,5.33l7.52,3.56,12.53.88,13.37-6.22,10.86,10.66.83,16,9.19,14.22,7.52,9.77,14.2-7.11,25.06-24.87,17.55,6.22,9.19,7.11,3.34,11.54,12.53-.89L460.52,293l5.84-4.44h14.21l25.06-7.11,7.52-13.32,8.35-6.22,9.19-5.33,13.36-5.33,3.35-8L549.9,229l7.52,1.78,11.7-10.66,6.68,4.44,5,7.1h11.7l5.84-12.43,4.18-9.77,7.52.89,6.68,7.1h5.85L633.44,213l5.85-16.88,9.19-24,5.85-20.43,4.17-24L666,109.08l7.52,2.67,7.52,8.88"/></g><g class="cls-4"><g class="cls-5"><text class="cls-6" transform="translate(32.84 135.52)">150</text></g></g><g class="cls-4"><g class="cls-7"><text class="cls-6" transform="translate(32.84 210.76)">100</text></g></g><g class="cls-4"><g class="cls-8"><text class="cls-6" transform="translate(36.05 283.15)">50</text></g></g><g class="cls-4"><g class="cls-9"><text class="cls-6" transform="translate(196.56 385.28)">1870</text></g></g><g class="cls-4"><g class="cls-10"><text class="cls-6" transform="translate(126.56 385.28)">1850</text></g></g><g class="cls-4"><g class="cls-11"><text class="cls-6" transform="translate(56.56 385.28)">1830</text></g></g><g class="cls-4"><g class="cls-12"><text class="cls-6" transform="translate(263.17 385.99)">1890</text></g></g><g class="cls-4"><g class="cls-13"><text class="cls-6" transform="translate(329.08 385.28)">1910</text></g></g><g class="cls-4"><g class="cls-14"><text class="cls-6" transform="translate(397.11 385.28)">1930</text></g></g><g class="cls-4"><g class="cls-15"><text class="cls-6" transform="translate(463.02 385.99)">1950</text></g></g><g class="cls-4"><g class="cls-16"><text class="cls-6" transform="translate(528.21 385.99)">1970</text></g></g><g class="cls-4"><g class="cls-17"><text class="cls-6" transform="translate(595.54 385.99)">1990</text></g></g><g class="cls-4"><g class="cls-18"><text class="cls-6" transform="translate(661.44 385.28)">2010</text></g></g><g class="cls-4"><g class="cls-19"><text class="cls-6" transform="translate(32.84 63.24)">200</text></g></g><text class="cls-20" transform="translate(23.52 43.02)">global median <tspan class="cls-21" x="74.7" y="0">r</tspan><tspan x="78.5" y="0">eal house p</tspan><tspan class="cls-22" x="135.67" y="0">r</tspan><tspan x="139.64" y="0">i</tspan><tspan class="cls-23" x="142.45" y="0">c</tspan><tspan x="147.75" y="0">e ind</tspan><tspan class="cls-24" x="172.54" y="0">e</tspan><tspan x="178.52" y="0">x, 1990=100</tspan></text></svg>