<svg id="Layer_1" data-name="Layer 1" 
    xmlns="http://www.w3.org/2000/svg" viewBox="0 0 74 75">
    <defs>
        <style>.cls-1{fill:#fff;}</style>
    </defs>
    <title>housingTypes</title>
    <path class="cls-1" d="M16.9,52.35h4.15V56.5H16.9Zm5.7,0h4.15V56.5H22.6Zm22.55,0H49.3V56.5H45.15Zm5.7,0H55V56.5H50.85ZM16.9,46.67h4.15v4.14H16.9Zm5.7,0h4.15v4.14H22.6Zm22.55,0H49.3v4.14H45.15Zm5.7,0H55v4.14H50.85ZM30.34,44H41.56V68.47H30.34ZM13.27,39.34V70H58.63V39.23L36,19.08Z"/>
    <polygon class="cls-1" points="35.95 10 3 39.36 10.78 39.36 10.98 39.36 11.15 39.21 35.95 17.11 60.15 38.68 60.97 39.36 68.91 39.36 55.73 27.62 55.73 17.65 49.93 17.65 49.93 22.46 35.95 10"/>
</svg>