<svg id="Layer_1" data-name="Layer 1" xmlns="http://www.w3.org/2000/svg" xmlns:xlink="http://www.w3.org/1999/xlink" viewBox="0 0 814 552"><defs><style>.cls-1,.cls-18{fill:none;}.cls-2{opacity:0.5;}.cls-3{clip-path:url(#clip-path);}.cls-4{font-size:12px;font-family:MyriadPro-Regular, Myriad Pro;}.cls-5{clip-path:url(#clip-path-2);}.cls-6{clip-path:url(#clip-path-3);}.cls-7{clip-path:url(#clip-path-4);}.cls-8{clip-path:url(#clip-path-5);}.cls-9{clip-path:url(#clip-path-6);}.cls-10{clip-path:url(#clip-path-7);}.cls-11{clip-path:url(#clip-path-8);}.cls-12{clip-path:url(#clip-path-9);}.cls-13{clip-path:url(#clip-path-10);}.cls-14{clip-path:url(#clip-path-11);}.cls-15{clip-path:url(#clip-path-12);}.cls-16{clip-path:url(#clip-path-13);}.cls-17{clip-path:url(#clip-path-14);}.cls-18{stroke:#20c1c9;stroke-miterlimit:10;}.cls-19{font-size:25.14px;fill:#20c1c9;font-family:KozGoPro-Medium-83pv-RKSJ-H, Kozuka Gothic Pro;}</style><clipPath id="clip-path"><rect class="cls-1" x="30.25" y="17.15" width="24.94" height="10.06"/></clipPath><clipPath id="clip-path-2"><rect class="cls-1" x="31.86" y="123.15" width="19.59" height="10.06"/></clipPath><clipPath id="clip-path-3"><rect class="cls-1" x="32.83" y="218.15" width="19.63" height="10.06"/></clipPath><clipPath id="clip-path-4"><rect class="cls-1" x="33.6" y="313.15" width="19.86" height="10.06"/></clipPath><clipPath id="clip-path-5"><rect class="cls-1" x="32.96" y="410.15" width="19.5" height="10.06"/></clipPath><clipPath id="clip-path-6"><rect class="cls-1" x="32.85" y="503.15" width="7.29" height="10.06"/></clipPath><clipPath id="clip-path-7"><rect class="cls-1" x="79.08" y="497.15" width="24.94" height="10.06"/></clipPath><clipPath id="clip-path-8"><rect class="cls-1" x="161.43" y="497.15" width="13.06" height="10.06"/></clipPath><clipPath id="clip-path-9"><rect class="cls-1" x="238.48" y="497.15" width="13.39" height="10.06"/></clipPath><clipPath id="clip-path-10"><rect class="cls-1" x="315.48" y="497.15" width="13.02" height="10.06"/></clipPath><clipPath id="clip-path-11"><rect class="cls-1" x="386.37" y="497.15" width="25.65" height="10.06"/></clipPath><clipPath id="clip-path-12"><rect class="cls-1" x="467.42" y="497.15" width="13.08" height="10.06"/></clipPath><clipPath id="clip-path-13"><rect class="cls-1" x="545.23" y="497.15" width="12.63" height="10.06"/></clipPath><clipPath id="clip-path-14"><rect class="cls-1" x="619.23" y="497.29" width="12.26" height="9.93"/></clipPath></defs><title>housing_costs</title><g class="cls-2"><g class="cls-3"><text class="cls-4" transform="translate(30 26.09)">1000</text></g></g><g class="cls-2"><g class="cls-5"><text class="cls-4" transform="translate(32.42 132.09)">800</text></g></g><g class="cls-2"><g class="cls-6"><text class="cls-4" transform="translate(33.42 227.09)">600</text></g></g><g class="cls-2"><g class="cls-7"><text class="cls-4" transform="translate(34.42 322.09)">400</text></g></g><g class="cls-2"><g class="cls-8"><text class="cls-4" transform="translate(33.42 419.09)">200</text></g></g><g class="cls-2"><g class="cls-9"><text class="cls-4" transform="translate(33.42 512.09)">0</text></g></g><g class="cls-2"><g class="cls-10"><text class="cls-4" transform="translate(78.83 506.09)">1980</text></g></g><g class="cls-2"><g class="cls-11"><text class="cls-4" transform="translate(161.99 506.09)">85</text></g></g><g class="cls-2"><g class="cls-12"><text class="cls-4" transform="translate(238.99 506.09)">90</text></g></g><g class="cls-2"><g class="cls-13"><text class="cls-4" transform="translate(315.99 506.09)">95</text></g></g><g class="cls-2"><g class="cls-14"><text class="cls-4" transform="translate(386.83 506.09)">2000</text></g></g><g class="cls-2"><g class="cls-15"><text class="cls-4" transform="translate(467.99 506.09)">05</text></g></g><g class="cls-2"><g class="cls-16"><text class="cls-4" transform="translate(544.99 506.09)">10</text></g></g><g class="cls-2"><g class="cls-17"><text class="cls-4" transform="translate(618.99 506.09)">15</text></g></g><polyline class="cls-18" points="94.92 409.81 98.3 409.81 100.47 409.81 102.13 411.14 104.47 411.98 106.63 414.14 109.8 416.64 111.3 416.64 113.47 413.23 116.8 414.48 121.63 412.48 124.13 409.81 125.63 408.14 130.3 409.81 132.3 411.64 137.97 409.81 142.97 410.48 147.8 412.39 156.13 418.64 163.97 419.98 181.8 432.81 190.8 431.81 212.3 445.31 232.63 445.31 240.13 444.14 247.13 445.31 254.47 445.31 259.13 446.64 307.97 446.64 311.13 446.64 321.13 449.98 338.8 448.98 352.63 450.64 367.3 448.14 393.13 442.64 410.13 441.48 427.13 437.81 479.3 434.64 509.3 431.31 515.97 431.14 527.63 432.14 535.63 429.39 539.63 429.56 545.13 431.64 548.97 431.81 552.47 431.81 556.3 430.98 559.63 431.81 562.13 433.98 563.97 435.14 564.97 436.64 567.13 437.98 583.63 437.14 588.13 436.14 590.8 436.14 595.63 435.14 599.13 433.48 605.63 433.14 609.97 433.14 613.47 432.31 616.47 434.81 620.13 434.98 625.3 432.14 630.13 429.56 633.3 428.31 635.47 427.64 637.8 427.31 640.97 427.31 643.8 427.14"/><text class="cls-19" transform="translate(643.96 431.93)">houston</text></svg>