<svg id="Layer_1" data-name="Layer 1" 
    xmlns="http://www.w3.org/2000/svg" viewBox="0 0 2020.08 1649.67">
    <defs>
        <style>.cls-1{fill:#606060;}.cls-2{fill:#5C5C5C;}.cls-3{font-size:76px;fill:#232323;font-family:MyriadPro-Regular, Myriad Pro;}.cls-4{letter-spacing:-0.01em;}</style>
    </defs>
    <title>houstonComparison</title>
    <g id="dWNwPF.tif">
        <path class="cls-2" d="M936,1131.61l.64.63-52.38,43.32q-26.4,21.84-53.65,44.42c-8.82,7.31-9.69,18.68-2.12,26.53a3,3,0,0,1,.25,3.13c-4.4,5.18-8.6,10.65-13.81,15.23-4.05,3.57-2.48,5,.94,6.44,1.49.62,3.48.3,5.16.66,7.24,1.55,14.9,1.9,17.62,10.35a40,40,0,0,0,9.53,15.63c8.61,8.54,17.06,16.94,21.56,28.57,1.81,4.68,5,8.4,1.9,13.87-2.26,4-.29,6.51,4.47,7,2.05.21,4.1,1,6.08.77,1.47-.17,2.86-1.51,4.22-2.41,1.65-1.1,4.54-3.37,4.65-3.26,3.28,3.45,8,6.79,8.86,10.91s2.12,4.48,5.63,5.08c7.65,1.29,13.28,10.5,12.5,19.67-.5,5.91-6,11.72-12.73,11.44-6.31-.27-7.12,3.33-8,7.3-.56,2.39-.22,5-.33,7.45-.69,15.1,2.32,30.84-6.85,45.47-.9,1.43-.29,3.69-.6,5.53-1.09,6.5-.57,14.07-3.9,19.32-4,6.26.22,8,2.73,10.81,3.51,3.87,5.78.88,7.93-2.4.83-1.26,2.67-1.87,4-2.78a25.15,25.15,0,0,1,1.76,3.57c2.72,8.67,7.22,10.47,15.29,6,10.18-5.64,18.85-1.94,22.76,9.57,1.42,4.17,2.24,9.4,5.19,12,6.5,5.79,14.15,10.32,21.53,15.16,1.28.84,4.55,1.1,4.76.63,2.79-6.29,6.88-12.59,7.27-19.09.6-9.87-.66-19.61,6.57-27.57,1.35-1.48,1.64-3.91,2.49-5.85,3-7,5.3-14.33,9.32-20.53,3.46-5.34,8.92-9.36,12.33-12.8-1.3-3.23-2.73-6.12-3.6-9.15-.78-2.75.06-6.55-1.59-8.3-4.58-4.87-10.79-8.35-15-13.4s-7.31-11.1-10.27-17.15c-4.27-8.71-13.63-15.1-20.67-22.47-.72-.76-1.49-2.12-1.25-3,1.86-6.51,6.93-12.85.36-19.44-.24-.24-.33-1-.13-1.2,6.11-4.69.71-9-1-12.83-2.45-5.36-6.16-10.25-9.67-15.07-2.5-3.45-5.71-6.44-8.33-9.8-.62-.8-.75-2.73-.14-3.4,10.08-11,13-10.86,21.88.88a2,2,0,0,1,.36.53c1.8,6,7.08,3.58,10.89,3.29,1.45-.11,2.85-3.27,3.78-5.23s1.17-4.4,2.1-6.46a4.09,4.09,0,0,1,2.65-1.54c5.32,4.37,7.77-.39,11.15-2.56s7-3.9,10.4-6a36.56,36.56,0,0,0,4.18-3.5c-1.43-1.15-2.77-2.39-4.28-3.44-3.87-2.71-7.79-5.34-11.68-8,.09-.55.18-1.1.28-1.64,5.45.93,8.79,1.19,6.59-5.26-1-3,1.28-8,3.89-10.62,8.69-8.7,17.92-16.86,27.29-24.7,1.86-1.56,6-2.22,8.58-1.53,2.29.63,4.16,3.52,5.63,5.72,2.12,3.18,3.21,7,5.67,9.93,4.43,5.32,4.3,10.36-1,15-.82.73-.93,3.32-.17,4,2.25,2.09,5.13,3.63,7.72,5.46s6.44,3,3.26,6.89c-.33.39-.09,1.56.35,2,3.86,4.29,7.35,9,14.87,7.35,4.54-1,7.81.5,10.28,5.12,2.67,5,6.48,10,13.28,11.34a39.91,39.91,0,0,0-5.94-8c-6.82-7.41-6.74-8.85,1-14.44,1-.72,2.49-1.13,3.07-2.06s1.08-2.8.48-3.54a90.09,90.09,0,0,0-7.93-8.32,44.85,44.85,0,0,0-5-3.53l5.18-2.88c.22-1.74-7.6-4.6.45-5.62.19,0,.25-3.26-.31-3.48-7.37-2.93-7.66-8.1-8.07-14.09-.73-10.69,2.93-16.35,14-20.31,2.83-1,4.62-3.87,7.12-5.62,1.06-.74,3-1.47,4.1-1.09,4.48,1.5,6,1.26,9.5-2.67,4.66-5.3,2.89-7.87-1-11.9-7.15-7.31-7.14-7.41.79-12.82,3.28-2.24,4.19-4.19.58-7.39-5.12-4.53-9.58-9.54-14.58-14.08-2.53-2.29-2.72-3.6-1.35-6.68,2-4.59,6.32-9.37,2.17-15.17-.52-.72,0-2.33.74-3.07.51-.52,2.28-.63,3.23-.3,6.61,2.24,10.73,1.48,14-3.05.57-.78.18-2.08.23-3.14a14.39,14.39,0,0,0-3.65-.25c-6.46,1.28-13,4.33-19.28,3.69-8.54-.87-15.63,1-23,3-4.24,1.17-7.58.53-10.55-2.34s-7-5.1-4.45-9.73c1.11-2,2.41-5.51-2.09-6.31-7.43-1.33-8.39-7.08-12.25-10.78-5.46-5.24-.36-8.94,2.34-13a12,12,0,0,0,1-2.52c-1.12,0-2.25,0-3.38-.07-2.86-.17-6.62.52-8.43-.71-6.53-4.45-12.39-9.49-18.42-14.3-2.71-2.16-1.81-4,.75-5.6,7.32-4.66,14.63-9.26,21.79-13.94,2.71-1.78,5-2,7.55.37,1.29,1.21,3,2.18,4.3,3.37,2.21,2,4.24,2,6.52.29,1.38-1,3.06-1.85,4.56-2.8,1.91-1.21,2.89-1.73,4.81.77,1.31,1.72,5.6,3.4,8,3,6.74-1,7.88,2.64,9.87,6.14,1.2,2.12,2.31,4.65,4.42,6,5.55,3.59,10.89,7,11.62,13.26a3.59,3.59,0,0,0,2.08,2.36c6,1.89,2.31,3.84.72,5.84s-5.4,4.14,1.42,5.11c.7.1,1.49,1.51,1.77,2.39a31.52,31.52,0,0,1,.77,4.53c1.89-1,4.53-1.6,5.5-3,3-4.34,7.11-3.2,11.26-1.37,4.39,1.93,5.08,5,3.87,8.67-.44,1.34-.53,3.77.41,4.35,5.39,3.4,11.16,6.4,16.93,9.6-2-6.59,4.76-5,8.27-4.91,5.92.15,5.06-1.45,2.85-4.73-3.83-5.68-1.48-10.42,5.71-10.88,9.44-.61,17.81-2.26,24-8.23,2.15-2.1,6.06-2.85,2.38-6.68-2.32-2.41-3.56-6.58-6.21-7.43-10.5-3.36-13.29-10.87-17-17.56-1.48-2.66.17-6.17.1-9.3a4.7,4.7,0,0,0-1.68-2.76c-5.23-4.87-10.87-9.45-15.64-14.47-2.47-2.6-3.72-2.73-5.94-.64s-4.39,3.83-6.61,5.75c2.27-3.41,7.34-5.76,7.93-8.92.52-2.82-3.86-6.52-6.11-9.8-.12-.17-.61-.21.06,0-5.54,7.69-11.13,15.28-16.58,23-4.28,6.11-13,5.55-20.7,2.15-1.81-.79-4.82-1.12-6.43-.46-3.61,1.48-6.15.75-8.92-1.41-4.1-3.2-8.18-6.4-12.53-9.33-9.46-6.38-9.34-8.81.58-14.13a9.49,9.49,0,0,0,4.17-4.25c.42-1-1.15-2.54-1.83-3.84a17,17,0,0,1-2.83,1.33c-.43.12-1.2-.32-1.78-.56-2.64-1.1-5.81-3.5-7.77-3.06-4.28,1-3.1,4-1.28,6.67a7.16,7.16,0,0,1,1.51,2.46c.09.62-.75,1.85-1.21,1.84-6.38-.14-13,.26-16.84-5.44a13.72,13.72,0,0,0-3.75-3.5,3.82,3.82,0,0,0-2.94-.13c-.83.55-1.81,2-1.44,2.47,3.49,4.29,6.48,9.15,11.2,12.51s8.72,5.44,1.93,9.42c-.65.39-.18,1.82-.79,2.38-1,.94-2.66,2.38-3.78,2.21-5.77-.87-8,.09-7.81,4.74.11,3.53-1.82,4.65-5.82,5.59-4.82,1.13-8,0-10.74-2.91s-5.54-4.1-9.56-1.18c-1.17.86-4.88,1-6,.18-5.24-3.83-11.42-7.16-10.22-14.24.32-1.93-5.28-6.45-5.6-6.3-5.54,2.48-7.37-.68-9.44-3.49-1.41-1.9-2.87-2.71-5.48-1.09-2.12,1.32-4.51,2.37-4.79-1.31,0-.28-2-.3-2.73-.79-1.15-.81-2.75-1.92-2.73-2.87a5.18,5.18,0,0,1,2.42-3.55c.59-.39,2.68.31,3.86.83s2.07,2.06,3,2a37,37,0,0,0,6.43-1.49c-.59-1.2-.88-3.23-1.83-3.45-6-1.4-3.45-3.28-.83-5.23,3.27-2.43,6.9-4.63,9.66-7.35.72-.72-1.16-3-1.84-4.59-1.57.53-3.88.72-4.57,1.64-2.17,2.88-3.63,6.08-5.56,9.1-1.58,2.48-3.53,2.86-5.9.35-.82-.87-3-2.13-3.28-2a98.84,98.84,0,0,0-10.61,7c-1.52,1.18-2.2,3-3.26,4.59a43.38,43.38,0,0,1-5.73-3.27c-2.67-2.11-4.61-6-7.54-6.4-5.77-.87-5.17-3.63-5.71-6.59-1-5.58-7.5-11.5-13.68-11.14-8.53.5-17.87-2.21-24.67,3.34-.82-2.08-1.43-3.85-2.22-5.56-.56-1.22-1.77-2.33-1.93-3.56-.22-1.83.48-3.74.29-5.57-.09-.84-1.38-1.58-2.12-2.36-4.66,3.19-7.85-1-9-2.18-2.71-2.79-3.75-6.64-4.72-10.18-.28-1,2.7-2.54,2.71-3.8a12.72,12.72,0,0,0-1.9-6.56c-.35-.59-4.15-.81-5-.17-4.48,3.27-9.21,3.44-14.26,1.76a37.42,37.42,0,0,1-4.76-2.32l3.75-2.1a22.65,22.65,0,0,0,3.51-2,16.15,16.15,0,0,0,2.5-3.08s-.88-.63-1.08-.55a40,40,0,0,0-3.71,1.68c-3.27,1.64-6.58,3.27-9.79,5-1.63.88-1.55,1-7.33-4.62a7.84,7.84,0,0,0-.64-.65c-3.64-2.83-8.3-2.13-10.72,1.48-.62.92-1.9,2.13-3,2.22a3.78,3.78,0,0,1-2.85-1.92c-1.28-3-3.56-4.89-8.08-4.7-6.95.29-10.64-3.48-14.13-6.59-3.31-3-6.81-3-11.1-2.09-5,1.1-8-.39-8.17-4.22a3,3,0,0,0-1.13-1.62c-3.66,1.18-4.53-.81-5.36-2.47-.93-1.88-1.78-3.16-5.32-2.41-1.12.24-3.34-1.06-3.92-2.07-.41-.71.79-2.34,1.85-3.14,1.54-1.17,4.12-1.73,5.29-3s.78-2.84,1.1-4.29c-1.76-.09-3.52-.27-5.29-.23-.94,0-2.11.79-2.84.62-3.64-.89-4.75-7.14-1.92-9.26.45-.33.42-1.66.06-1.79-4.57-1.54-9.23-3-13.9-4.35-.26-.08-.93.37-1.36.62-2.84,1.63-5.87,3.14-8.44,5-1.65,1.19-3.26,2.85-3.64,4.37-.25,1,2.47,3.14,2.62,3.08,7.8-3.43,12.21-1.27,16.06,3.37,2.49,3,1.05,5-2.72,5.91-4.79,1.14-3.63,2-1.32,3.74a25.65,25.65,0,0,1,3.26,3.42c1.76,1.84,3.62,2.64,7.23,1.29,3.9-1.47,12,3.78,10.34,6.71-.84,1.52-3.54,2.58-5.49,3.92,3.58,1.17,6.56,3.52,10.86.63.31-.21,3.4,1,3.93,2A110.08,110.08,0,0,1,786,954.64a8.87,8.87,0,0,1,.32,2.26,14,14,0,0,1-3.49-.41c-1-.41-1.56-1.36-2.44-2-1.89-1.29-3.53-5.46-6.2.05a3.85,3.85,0,0,1-2.5,1.67c-6.8.53-9.58,5.42-14.59,7.9-10.25,5.07-12.85,12.71-13.69,20.92-.51,4.95,2.08,7.11,7.91,8.54A10.74,10.74,0,0,1,757.6,998c4.46,7.92,4.94,8.31,16.09,6.92a4.55,4.55,0,0,1,1.7-.16c2.47,1,6.09,1.54,7,3.15s-.18,5-2,6.28c-3.06,2.2-7.46,3.21-11.11,5a23.36,23.36,0,0,0-5,3.62c-2.2,1.89-3.88,4.29-6.41,5.81-3.63,2.18-5.67,3.84-2,6.82,1,.83,1.25,3.75.62,4.07-5,2.54-9.44,8-16.3,4-1.13-.64-2.48-1.09-3.5-1.81-3.92-2.78-6.68,1.29-10,1.79.79,1.14,1.66,2.25,2.37,3.43,3.8,6.35,10.16,11.57,10.71,19.57.4,5.73,2.51,11.31,4.23,16.92,1,3.28,2.85,4.92,7.14,1.15,3.27-2.88,7.42-5.1,11.17-7.6l1,.9c-3.41,2.52-6.43,5.71-10.34,7.45-7.17,3.2,2.25,9.49-5.37,12.28a5.32,5.32,0,0,0,.56,2.15,6,6,0,0,0,1.33,1.54c2.19,2.1,4.53,4.1,6.59,6.3,2.91,3.12,5.46,6.51,8.5,9.58s5.25,6.53,2.66,10.94-7.73,6.1-13.63,4.93c-.77-.15-2-.31-2.44,0-6.12,4.67-12.36,9.29-18.21,14.29-4.88,4.16-7.94,3.21-10.31-.94-1.41-2.48-3.14-2.5-5.69-.54a35,35,0,0,1-4.22,2.59c-9.39,5.27-9.71,8-2,12.91.88-1.66,1.83-3.47,2.77-5.28,1.71,1.07,3.86,1.86,5,3.27,9.66,11.48,19.53,23.07,28.89,35.2,3.48,4.51,6.1,5,11,.76,2.92-2.56,6.69-4.37,10-6.62,2.94-2,5.58-2.24,7.63.29,3.15,3.87,6.23,7.81,9.06,11.91.5.73-.19,3.13-.81,3.32-5.54,1.75-2.45,4.17-1,5.92,6.76,8.4,13.7,16.81,21,25,.8.89,4.77.78,6.06-.18,6.82-5,13.27-10.44,19.71-15.76q44.28-36.57,86.24-71.3Zm339.8,41.86c-.3.31-.6.62-.89.94,1.71,1.26,3.4,2.55,5.13,3.8,6.39,4.59,6.69,8,1.66,12.61-1,.92-.47,3.23-.36,4.92a11.55,11.55,0,0,0,1.11,3c-1.37-.3-2.93-.31-4.07-1a28.43,28.43,0,0,1-6.4-4.43c-4.32-4.45-9.76-6.11-15.64-7-3.83-.58-7.66-1-11.48-1.61-6.94-1-13.07-.71-16.7,4.83-1.15,1.74-3.39,2.87-5,4.38-4,3.7-8,3.22-12.46-.91-3.84-3.52-8-6.81-12.17-10-1-.77-3.49-1.33-4.29-.85-4.49,2.67-5,9.75-.91,14.08,4.49,4.79,9.18,9.5,14.1,14.06,6.84,6.33,7.78,11.37,3.23,18.22-.81,1.23-1.19,3.8-.3,4.74,5.6,5.9,11.55,11.64,17.71,17.24,1,.92,4.36,1.45,5,.81,5.11-4.74,10.58-6.83,19.29-5.17,3.63.69,8.12-3.92,11.34-6.85.7-.64-1.89-4.65-3.66-6.68-2.93-3.37-6.74-6.21-9.55-9.6a19.88,19.88,0,0,1-3.92-7.76c-.77-3.24,1.33-4.65,4.86-2.49a153.17,153.17,0,0,1,15.11,10.34c4.21,3.35,8.45,5,13.33,3.85,3.08-.74,4.85-2.38,1-5.1-5.19-3.65-2.3-5.14.93-6.9s6-4,9.29-5.77c.8-.43,2.75.2,4,.73,3,1.29,6,3.65,9,4a20.12,20.12,0,0,1,9.21,3.52c3,1.88,8,.94,12.17,1.24a55.83,55.83,0,0,1-1.18-6.6c-.13-1.83-.51-4.72.62-5.2,3.33-1.42,7.34-1.92,11.11-2.7,1.05-.22,3.21-.12,3.2-.25-.89-6.41,6.76-5.8,9.57-9,1.34-1.52,1-4.49.6-6.81-.22-1.22-2.32-2.47-3.57-3.7,1.87.89,3.77,1.73,5.61,2.7s3.47,2.55,5.2,2.82c2.13.34,5.17.27,6.23-.81,4.7-4.77,0-18.4-7.09-22.87a31.31,31.31,0,0,1-6.6-6.29c-6.74-7.85-4.8-14.76-1.56-21.57.66-1.39.71-4.19-.39-5-7.89-6-5.66-11.88-3.89-17.48,1.21-3.83,0-4.66-4.85-5.6-6.5-1.26-14.39-.43-18.39-7.62-.26-.46-2.25-.7-3.37-.71-9.07-.14-17.77-1.46-25.65-6.94a8.47,8.47,0,0,0-5.05-1c-4,.51-7.86,1.58-11.88,2.17-2.42.35-5.32,1-7.49.16-3.88-1.42-7-5.53-11.75-2.87a5.46,5.46,0,0,1-2.32-1.48c-3.67-4.17-.82-5.37,3.26-6.69,2-.64,4.61-3.5,4-4.49-1.89-3.13-5-6-8.06-8.56-.42-.36-3.75,1.07-5.35,2-4.13,2.51-7.84,5.46-12.2,7.71-1.21.63-4.68,0-6-1a139.25,139.25,0,0,1-11.58-10.09c-5.61-5.27-6.16-5.37-12-1.48-1.86,1.24-4.3,2.06-5.76,3.55-.92,1-.52,2.78-.71,4.22a32.47,32.47,0,0,0,5.57.47c1.77-.16,4.39-1.7,4.88-1.29a129,129,0,0,1,13.92,12.81c3.07,3.46,4.39,7.85,7.37,11.43,4.17,5,4.14,8-1.22,11.35a75.44,75.44,0,0,0-8.15,5.83q-6.64,5.51-12.95,11.38a18.32,18.32,0,0,0-3.44,4.87c-.31.57.37,1.58.6,2.39a8.56,8.56,0,0,0,2.67-.52,82.69,82.69,0,0,0,8.15-5.39c5.17-4.08,5.79-4.14,10.77,1.32,4.09,4.48,7.23,9.76,12.06,13.63C1250.4,1155.07,1263.2,1164.09,1275.84,1173.47ZM715.92,947.65c0,1.5,0,2.47-.06,3.44-5.28.08-3.39,3-3.1,4.47.59,3,6,5.55,0,9.21-.14.08,0,.57.14.77,4.23,5.15,8.42,10.36,12.91,15.47.48.54,3.19.68,3.73.23,6.68-5.54,17.54-8.42,19.25-16.94.46-2.3,1.68-3.34,4.87-1.8.88.42,4-.54,5-1.49,1.52-1.44,2.84-3.49,2.75-5.13,0-.82-3.27-1.52-5.22-1.92-2.63-.53-5.5-.58-8.13-1.11-3-.61-5.87-2.31-8.84-2.16-7.38.39-15.14,2.66-20.69-2.26C718,947.94,716.72,947.88,715.92,947.65Zm377.64,62.48c2-.2,4.62-.31,4.61-.5a38,38,0,0,0-1-5.81,44.17,44.17,0,0,0-3.92,2.48c-4,3.15-5.89,8.38-14.26,7.88,3.94,2.07,7.41,3.44,10.15,5.43,4.57,3.32,6.57-2,11.09-.26Zm3.76-22.09c.27,2.53.5,5.75,1.09,9,.08.44,2,1.17,2.9,1.11,3.68-.25,7.3-.76,11.22-1.21a27,27,0,0,1,.36-5.21c.93-4.22,1.06-4.19-3-6.33-.87,1.18-1.54,3.28-2.64,3.36C1104.1,988.93,1100.77,988.33,1097.32,988Zm-20-11.43c-1.3,1-2.35,2.69-3.74,2.82-1.7.14-5-.79-5.27-1.6-.63-2,.06-4.24.19-6.06-2.72,1.09-5.44,8.92-3.09,11.2a3.54,3.54,0,0,0,2.6.35c2.77-2.53,4.48-1.29,6.45.93.69.78,2.35,1.07,3.57,1.58.73-1.22,2.21-2.49,2-3.65C1079.7,980.26,1078.27,978.42,1077.33,976.61Zm-12.7,131.78a46.64,46.64,0,0,0,5.85,3.81c.52.25,2.85-.93,2.77-1.3-.56-2.58-.94-5.39-2.55-7.56-1.29-1.73-4.08-3.13-6.51-3.79-1.44-.4-3.49.89-5.26,1.43a60.59,60.59,0,0,0,3.19,5.18A13.9,13.9,0,0,0,1064.63,1108.39Zm57.09-124.74c5.48-2.92,10.46-5.48,15.15-8.3.32-.2-1.11-3-2.31-3.41-2.71-.91-11.52,4.08-12,6.41C1122.3,979.86,1122.09,981.39,1121.72,983.65ZM887.38,940a11.64,11.64,0,0,1-.75-1.5c-1-3-2.2-5.22-6.12-1.2-.7.72-2.28,1-3.45,1.45a26.73,26.73,0,0,0,4.45,1.32A45.34,45.34,0,0,0,887.38,940ZM720.13,1029.1l.62.63c3.72-1.13,7.49-2.14,11.09-3.48.73-.27,1.24-1.89,1.06-2.72-.11-.47-2.25-1.09-2.73-.81C726.73,1024.72,723.46,1026.94,720.13,1029.1Z"/>
        <path class="cls-2" d="M936,1131.61,916.17,1148q-42,34.73-86.24,71.3c-6.44,5.32-12.89,10.71-19.71,15.76-1.29,1-5.26,1.07-6.06.18-7.34-8.24-14.28-16.65-21-25-1.41-1.75-4.5-4.17,1-5.92.62-.19,1.31-2.59.81-3.32-2.83-4.1-5.91-8-9.06-11.91-2-2.53-4.69-2.31-7.63-.29-3.28,2.25-7,4.06-10,6.62-4.89,4.28-7.51,3.75-11-.76-9.36-12.13-19.23-23.72-28.89-35.2-1.18-1.41-3.33-2.2-5-3.27-.94,1.81-1.89,3.62-2.77,5.28-7.7-5-7.38-7.64,2-12.91a35,35,0,0,0,4.22-2.59c2.55-2,4.28-1.94,5.69.54,2.37,4.15,5.43,5.1,10.31.94,5.85-5,12.09-9.62,18.21-14.29.46-.35,1.67-.19,2.44,0,5.9,1.17,11.07-.58,13.63-4.93s.48-7.76-2.66-10.94-5.59-6.46-8.5-9.58c-2.06-2.2-4.4-4.2-6.59-6.3a6,6,0,0,1-1.33-1.54,5.32,5.32,0,0,1-.56-2.15c7.62-2.79-1.8-9.08,5.37-12.28,3.91-1.74,6.93-4.93,10.34-7.45l-1-.9c-3.75,2.5-7.9,4.72-11.17,7.6-4.29,3.77-6.13,2.13-7.14-1.15-1.72-5.61-3.83-11.19-4.23-16.92-.55-8-6.91-13.22-10.71-19.57-.71-1.18-1.58-2.29-2.37-3.43,3.35-.5,6.11-4.57,10-1.79,1,.72,2.37,1.17,3.5,1.81,6.86,3.9,11.3-1.51,16.3-4,.63-.32.38-3.24-.62-4.07-3.62-3-1.58-4.64,2-6.82,2.53-1.52,4.21-3.92,6.41-5.81a23.36,23.36,0,0,1,5-3.62c3.65-1.78,8.05-2.79,11.11-5,1.79-1.28,2.83-4.68,2-6.28s-4.49-2.2-7-3.15a4.55,4.55,0,0,0-1.7.16c-11.15,1.39-11.63,1-16.09-6.92a10.74,10.74,0,0,0-6.31-4.42c-5.83-1.43-8.42-3.59-7.91-8.54.84-8.21,3.44-15.85,13.69-20.92,5-2.48,7.79-7.37,14.59-7.9a3.85,3.85,0,0,0,2.5-1.67c2.67-5.51,4.31-1.34,6.2-.05.88.6,1.43,1.55,2.44,2a14,14,0,0,0,3.49.41,8.87,8.87,0,0,0-.32-2.26,110.08,110.08,0,0,0-4.74-10.92c-.53-1-3.62-2.22-3.93-2-4.3,2.89-7.28.54-10.86-.63,1.95-1.34,4.65-2.4,5.49-3.92,1.63-2.93-6.44-8.18-10.34-6.71-3.61,1.35-5.47.55-7.23-1.29a25.65,25.65,0,0,0-3.26-3.42c-2.31-1.69-3.47-2.6,1.32-3.74,3.77-.9,5.21-2.92,2.72-5.91-3.85-4.64-8.26-6.8-16.06-3.37-.15.06-2.87-2.07-2.62-3.08.38-1.52,2-3.18,3.64-4.37,2.57-1.85,5.6-3.36,8.44-5,.43-.25,1.1-.7,1.36-.62,4.67,1.38,9.33,2.81,13.9,4.35.36.13.39,1.46-.06,1.79-2.83,2.12-1.72,8.37,1.92,9.26.73.17,1.9-.6,2.84-.62,1.77,0,3.53.14,5.29.23-.32,1.45-.06,3.16-1.1,4.29s-3.75,1.82-5.29,3c-1.06.8-2.26,2.43-1.85,3.14.58,1,2.8,2.31,3.92,2.07,3.54-.75,4.39.53,5.32,2.41.83,1.66,1.7,3.65,5.36,2.47a3,3,0,0,1,1.13,1.62c.14,3.83,3.16,5.32,8.17,4.22,4.29-1,7.79-.86,11.1,2.09,3.49,3.11,7.18,6.88,14.13,6.59,4.52-.19,6.8,1.7,8.08,4.7a3.78,3.78,0,0,0,2.85,1.92c1.06-.09,2.34-1.3,3-2.22,2.42-3.61,7.08-4.31,10.72-1.48a7.84,7.84,0,0,1,.64.65c5.78,5.59,5.7,5.5,7.33,4.62,3.21-1.72,6.52-3.35,9.79-5a40,40,0,0,1,3.71-1.68c.2-.08,1.11.5,1.08.55a16.15,16.15,0,0,1-2.5,3.08,22.65,22.65,0,0,1-3.51,2l-3.75,2.1a37.42,37.42,0,0,0,4.76,2.32c5,1.68,9.78,1.51,14.26-1.76.88-.64,4.68-.42,5,.17a12.72,12.72,0,0,1,1.9,6.56c0,1.26-3,2.76-2.71,3.8,1,3.54,2,7.39,4.72,10.18,1.12,1.15,4.31,5.37,9,2.18.74.78,2,1.52,2.12,2.36.19,1.83-.51,3.74-.29,5.57.16,1.23,1.37,2.34,1.93,3.56.79,1.71,1.4,3.48,2.22,5.56,6.8-5.55,16.14-2.84,24.67-3.34,6.18-.36,12.66,5.56,13.68,11.14.54,3-.06,5.72,5.71,6.59,2.93.44,4.87,4.29,7.54,6.4a43.38,43.38,0,0,0,5.73,3.27c1.06-1.56,1.74-3.41,3.26-4.59a98.84,98.84,0,0,1,10.61-7c.31-.17,2.46,1.09,3.28,2,2.37,2.51,4.32,2.13,5.9-.35,1.93-3,3.39-6.22,5.56-9.1.69-.92,3-1.11,4.57-1.64.68,1.57,2.56,3.87,1.84,4.59-2.76,2.72-6.39,4.92-9.66,7.35-2.62,1.95-5.18,3.83.83,5.23,1,.22,1.24,2.25,1.83,3.45a37,37,0,0,1-6.43,1.49c-.89.06-1.82-1.5-3-2s-3.27-1.22-3.86-.83a5.18,5.18,0,0,0-2.42,3.55c0,.95,1.58,2.06,2.73,2.87.69.49,2.71.51,2.73.79.28,3.68,2.67,2.63,4.79,1.31,2.61-1.62,4.07-.81,5.48,1.09,2.07,2.81,3.9,6,9.44,3.49.32-.15,5.92,4.37,5.6,6.3-1.2,7.08,5,10.41,10.22,14.24,1.11.8,4.82.68,6-.18,4-2.92,6.73-1.83,9.56,1.18s5.92,4,10.74,2.91c4-.94,5.93-2.06,5.82-5.59-.15-4.65,2-5.61,7.81-4.74,1.12.17,2.75-1.27,3.78-2.21.61-.56.14-2,.79-2.38,6.79-4,2.84-6-1.93-9.42s-7.71-8.22-11.2-12.51c-.37-.46.61-1.92,1.44-2.47a3.82,3.82,0,0,1,2.94.13,13.72,13.72,0,0,1,3.75,3.5c3.79,5.7,10.46,5.3,16.84,5.44.46,0,1.3-1.22,1.21-1.84a7.16,7.16,0,0,0-1.51-2.46c-1.82-2.63-3-5.72,1.28-6.67,2-.44,5.13,2,7.77,3.06.58.24,1.35.68,1.78.56a17,17,0,0,0,2.83-1.33c.68,1.3,2.25,2.87,1.83,3.84a9.49,9.49,0,0,1-4.17,4.25c-9.92,5.32-10,7.75-.58,14.13,4.35,2.93,8.43,6.13,12.53,9.33,2.77,2.16,5.31,2.89,8.92,1.41,1.61-.66,4.62-.33,6.43.46,7.75,3.4,16.42,4,20.7-2.15,5.45-7.76,11-15.35,16.58-23-.67-.21-.18-.17-.06,0,2.25,3.28,6.63,7,6.11,9.8-.59,3.16-5.66,5.51-7.93,8.92,2.22-1.92,4.5-3.78,6.61-5.75s3.47-2,5.94.64c4.77,5,10.41,9.6,15.64,14.47a4.7,4.7,0,0,1,1.68,2.76c.07,3.13-1.58,6.64-.1,9.3,3.71,6.69,6.5,14.2,17,17.56,2.65.85,3.89,5,6.21,7.43,3.68,3.83-.23,4.58-2.38,6.68-6.14,6-14.51,7.62-24,8.23-7.19.46-9.54,5.2-5.71,10.88,2.21,3.28,3.07,4.88-2.85,4.73-3.51-.09-10.24-1.68-8.27,4.91-5.77-3.2-11.54-6.2-16.93-9.6-.94-.58-.85-3-.41-4.35,1.21-3.62.52-6.74-3.87-8.67-4.15-1.83-8.31-3-11.26,1.37-1,1.44-3.61,2.05-5.5,3a31.52,31.52,0,0,0-.77-4.53c-.28-.88-1.07-2.29-1.77-2.39-6.82-1-2.93-3.2-1.42-5.11s5.26-3.95-.72-5.84a3.59,3.59,0,0,1-2.08-2.36c-.73-6.24-6.07-9.67-11.62-13.26-2.11-1.37-3.22-3.9-4.42-6-2-3.5-3.13-7.15-9.87-6.14-2.35.35-6.64-1.33-8-3-1.92-2.5-2.9-2-4.81-.77-1.5.95-3.18,1.75-4.56,2.8-2.28,1.73-4.31,1.7-6.52-.29-1.34-1.19-3-2.16-4.3-3.37-2.53-2.37-4.84-2.15-7.55-.37-7.16,4.68-14.47,9.28-21.79,13.94-2.56,1.63-3.46,3.44-.75,5.6,6,4.81,11.89,9.85,18.42,14.3,1.81,1.23,5.57.54,8.43.71,1.13.06,2.26,0,3.38.07a12,12,0,0,1-1,2.52c-2.7,4-7.8,7.71-2.34,13,3.86,3.7,4.82,9.45,12.25,10.78,4.5.8,3.2,4.32,2.09,6.31-2.58,4.63,1.53,6.9,4.45,9.73s6.31,3.51,10.55,2.34c7.34-2,14.43-3.9,23-3,6.31.64,12.82-2.41,19.28-3.69a14.39,14.39,0,0,1,3.65.25c0,1.06.34,2.36-.23,3.14-3.28,4.53-7.4,5.29-14,3.05-1-.33-2.72-.22-3.23.3-.71.74-1.26,2.35-.74,3.07,4.15,5.8-.13,10.58-2.17,15.17-1.37,3.08-1.18,4.39,1.35,6.68,5,4.54,9.46,9.55,14.58,14.08,3.61,3.2,2.7,5.15-.58,7.39-7.93,5.41-7.94,5.51-.79,12.82,3.94,4,5.71,6.6,1,11.9-3.45,3.93-5,4.17-9.5,2.67-1.12-.38-3,.35-4.1,1.09-2.5,1.75-4.29,4.61-7.12,5.62-11.07,4-14.73,9.62-14,20.31.41,6,.7,11.16,8.07,14.09.56.22.5,3.46.31,3.48-8.05,1-.23,3.88-.45,5.62l-5.18,2.88a44.85,44.85,0,0,1,5,3.53,90.09,90.09,0,0,1,7.93,8.32c.6.74.14,2.57-.48,3.54s-2.07,1.34-3.07,2.06c-7.75,5.59-7.83,7-1,14.44a39.91,39.91,0,0,1,5.94,8c-6.8-1.35-10.61-6.34-13.28-11.34-2.47-4.62-5.74-6.14-10.28-5.12-7.52,1.67-11-3.06-14.87-7.35-.44-.48-.68-1.65-.35-2,3.18-3.85-.79-5.13-3.26-6.89s-5.47-3.37-7.72-5.46c-.76-.7-.65-3.29.17-4,5.26-4.68,5.39-9.72,1-15-2.46-3-3.55-6.75-5.67-9.93-1.47-2.2-3.34-5.09-5.63-5.72-2.55-.69-6.72,0-8.58,1.53-9.37,7.84-18.6,16-27.29,24.7-2.61,2.62-4.92,7.61-3.89,10.62,2.2,6.45-1.14,6.19-6.59,5.26-.1.54-.19,1.09-.28,1.64,3.89,2.64,7.81,5.27,11.68,8,1.51,1,2.85,2.29,4.28,3.44a36.56,36.56,0,0,1-4.18,3.5c-3.39,2.08-7,3.83-10.4,6s-5.83,6.93-11.15,2.56a4.09,4.09,0,0,0-2.65,1.54c-.93,2.06-1.12,4.41-2.1,6.46s-2.33,5.12-3.78,5.23c-3.81.29-9.09,2.69-10.89-3.29a2,2,0,0,0-.36-.53c-8.91-11.74-11.8-11.89-21.88-.88-.61.67-.48,2.6.14,3.4,2.62,3.36,5.83,6.35,8.33,9.8,3.51,4.82,7.22,9.71,9.67,15.07,1.74,3.82,7.14,8.14,1,12.83-.2.15-.11,1,.13,1.2,6.57,6.59,1.5,12.93-.36,19.44-.24.84.53,2.2,1.25,3,7,7.37,16.4,13.76,20.67,22.47,3,6,6,12,10.27,17.15s10.38,8.53,15,13.4c1.65,1.75.81,5.55,1.59,8.3.87,3,2.3,5.92,3.6,9.15-3.41,3.44-8.87,7.46-12.33,12.8-4,6.2-6.29,13.58-9.32,20.53-.85,1.94-1.14,4.37-2.49,5.85-7.23,8-6,17.7-6.57,27.57-.39,6.5-4.48,12.8-7.27,19.09-.21.47-3.48.21-4.76-.63-7.38-4.84-15-9.37-21.53-15.16-3-2.64-3.77-7.87-5.19-12-3.91-11.51-12.58-15.21-22.76-9.57-8.07,4.47-12.57,2.67-15.29-6a25.15,25.15,0,0,0-1.76-3.57c-1.37.91-3.21,1.52-4,2.78-2.15,3.28-4.42,6.27-7.93,2.4-2.51-2.78-6.7-4.55-2.73-10.81,3.33-5.25,2.81-12.82,3.9-19.32.31-1.84-.3-4.1.6-5.53,9.17-14.63,6.16-30.37,6.85-45.47.11-2.49-.23-5.06.33-7.45.92-4,1.73-7.57,8-7.3,6.76.28,12.23-5.53,12.73-11.44.78-9.17-4.85-18.38-12.5-19.67-3.51-.6-4.82-1-5.63-5.08s-5.58-7.46-8.86-10.91c-.11-.11-3,2.16-4.65,3.26-1.36.9-2.75,2.24-4.22,2.41-2,.23-4-.56-6.08-.77-4.76-.47-6.73-2.94-4.47-7,3.05-5.47-.09-9.19-1.9-13.87-4.5-11.63-12.95-20-21.56-28.57a40,40,0,0,1-9.53-15.63c-2.72-8.45-10.38-8.8-17.62-10.35-1.68-.36-3.67,0-5.16-.66-3.42-1.44-5-2.87-.94-6.44,5.21-4.58,9.41-10,13.81-15.23a3,3,0,0,0-.25-3.13c-7.57-7.85-6.7-19.22,2.12-26.53q27.26-22.59,53.65-44.42l52.38-43.32Z"/>
        <path class="cls-2" d="M1275.84,1173.47c-12.64-9.38-25.44-18.4-37.39-28-4.83-3.87-8-9.15-12.06-13.63-5-5.46-5.6-5.4-10.77-1.32a82.69,82.69,0,0,1-8.15,5.39,8.56,8.56,0,0,1-2.67.52c-.23-.81-.91-1.82-.6-2.39a18.32,18.32,0,0,1,3.44-4.87q6.28-5.88,12.95-11.38a75.44,75.44,0,0,1,8.15-5.83c5.36-3.36,5.39-6.36,1.22-11.35-3-3.58-4.3-8-7.37-11.43a129,129,0,0,0-13.92-12.81c-.49-.41-3.11,1.13-4.88,1.29a32.47,32.47,0,0,1-5.57-.47c.19-1.44-.21-3.27.71-4.22,1.46-1.49,3.9-2.31,5.76-3.55,5.84-3.89,6.39-3.79,12,1.48a139.25,139.25,0,0,0,11.58,10.09c1.35,1,4.82,1.68,6,1,4.36-2.25,8.07-5.2,12.2-7.71,1.6-1,4.93-2.4,5.35-2,3.09,2.58,6.17,5.43,8.06,8.56.6,1-2,3.85-4,4.49-4.08,1.32-6.93,2.52-3.26,6.69a5.46,5.46,0,0,0,2.32,1.48c4.79-2.66,7.87,1.45,11.75,2.87,2.17.79,5.07.19,7.49-.16,4-.59,7.85-1.66,11.88-2.17a8.47,8.47,0,0,1,5.05,1c7.88,5.48,16.58,6.8,25.65,6.94,1.12,0,3.11.25,3.37.71,4,7.19,11.89,6.36,18.39,7.62,4.82.94,6.06,1.77,4.85,5.6-1.77,5.6-4,11.5,3.89,17.48,1.1.83,1,3.63.39,5-3.24,6.81-5.18,13.72,1.56,21.57a31.31,31.31,0,0,0,6.6,6.29c7.08,4.47,11.79,18.1,7.09,22.87-1.06,1.08-4.1,1.15-6.23.81-1.73-.27-3.43-1.9-5.2-2.82s-3.74-1.81-5.61-2.7c1.25,1.23,3.35,2.48,3.57,3.7.43,2.32.74,5.29-.6,6.81-2.81,3.19-10.46,2.58-9.57,9,0,.13-2.15,0-3.2.25-3.77.78-7.78,1.28-11.11,2.7-1.13.48-.75,3.37-.62,5.2a55.83,55.83,0,0,0,1.18,6.6c-4.14-.3-9.22.64-12.17-1.24a20.12,20.12,0,0,0-9.21-3.52c-3-.38-6-2.74-9-4-1.26-.53-3.21-1.16-4-.73-3.25,1.72-6.06,4-9.29,5.77s-6.12,3.25-.93,6.9c3.88,2.72,2.11,4.36-1,5.1-4.88,1.17-9.12-.5-13.33-3.85a153.17,153.17,0,0,0-15.11-10.34c-3.53-2.16-5.63-.75-4.86,2.49a19.88,19.88,0,0,0,3.92,7.76c2.81,3.39,6.62,6.23,9.55,9.6,1.77,2,4.36,6,3.66,6.68-3.22,2.93-7.71,7.54-11.34,6.85-8.71-1.66-14.18.43-19.29,5.17-.68.64-4,.11-5-.81-6.16-5.6-12.11-11.34-17.71-17.24-.89-.94-.51-3.51.3-4.74,4.55-6.85,3.61-11.89-3.23-18.22-4.92-4.56-9.61-9.27-14.1-14.06-4.06-4.33-3.58-11.41.91-14.08.8-.48,3.27.08,4.29.85,4.2,3.15,8.33,6.44,12.17,10,4.5,4.13,8.46,4.61,12.46.91,1.63-1.51,3.87-2.64,5-4.38,3.63-5.54,9.76-5.84,16.7-4.83,3.82.56,7.65,1,11.48,1.61,5.88.88,11.32,2.54,15.64,7a28.43,28.43,0,0,0,6.4,4.43c1.14.65,2.7.66,4.07,1a11.55,11.55,0,0,1-1.11-3c-.11-1.69-.66-4,.36-4.92,5-4.59,4.73-8-1.66-12.61-1.73-1.25-3.42-2.54-5.13-3.8C1275.24,1174.09,1275.54,1173.78,1275.84,1173.47Z"/>
        <path class="cls-2" d="M715.92,947.65c.8.23,2,.29,2.59.78,5.55,4.92,13.31,2.65,20.69,2.26,3-.15,5.81,1.55,8.84,2.16,2.63.53,5.5.58,8.13,1.11,2,.4,5.17,1.1,5.22,1.92.09,1.64-1.23,3.69-2.75,5.13-1,1-4.11,1.91-5,1.49-3.19-1.54-4.41-.5-4.87,1.8-1.71,8.52-12.57,11.4-19.25,16.94-.54.45-3.25.31-3.73-.23-4.49-5.11-8.68-10.32-12.91-15.47-.17-.2-.28-.69-.14-.77,6-3.66.6-6.17,0-9.21-.29-1.48-2.18-4.39,3.1-4.47C715.88,950.12,715.9,949.15,715.92,947.65Z"/>
        <path class="cls-2" d="M1093.56,1010.13l6.72,9.22c-4.52-1.69-6.52,3.58-11.09.26-2.74-2-6.21-3.36-10.15-5.43,8.37.5,10.22-4.73,14.26-7.88a44.17,44.17,0,0,1,3.92-2.48,38,38,0,0,1,1,5.81C1098.18,1009.82,1095.53,1009.93,1093.56,1010.13Z"/>
        <path class="cls-2" d="M1097.32,988c3.45.29,6.78.89,9.94.68,1.1-.08,1.77-2.18,2.64-3.36,4,2.14,3.92,2.11,3,6.33a27,27,0,0,0-.36,5.21c-3.92.45-7.54,1-11.22,1.21-.92.06-2.82-.67-2.9-1.11C1097.82,993.79,1097.59,990.57,1097.32,988Z"/>
        <path class="cls-2" d="M1077.33,976.61c.94,1.81,2.37,3.65,2.71,5.57.21,1.16-1.27,2.43-2,3.65-1.22-.51-2.88-.8-3.57-1.58-2-2.22-3.68-3.46-6.45-.93a3.54,3.54,0,0,1-2.6-.35c-2.35-2.28.37-10.11,3.09-11.2-.13,1.82-.82,4-.19,6.06.25.81,3.57,1.74,5.27,1.6C1075,979.3,1076,977.66,1077.33,976.61Z"/>
        <path class="cls-2" d="M1064.63,1108.39a13.9,13.9,0,0,1-2.51-2.23,60.59,60.59,0,0,1-3.19-5.18c1.77-.54,3.82-1.83,5.26-1.43,2.43.66,5.22,2.06,6.51,3.79,1.61,2.17,2,5,2.55,7.56.08.37-2.25,1.55-2.77,1.3A46.64,46.64,0,0,1,1064.63,1108.39Z"/>
        <path class="cls-2" d="M1121.72,983.65c.37-2.26.58-3.79.87-5.3.45-2.33,9.26-7.32,12-6.41,1.2.4,2.63,3.21,2.31,3.41C1132.18,978.17,1127.2,980.73,1121.72,983.65Z"/>
        <path class="cls-2" d="M887.38,940a45.34,45.34,0,0,1-5.87.07,26.73,26.73,0,0,1-4.45-1.32c1.17-.47,2.75-.73,3.45-1.45,3.92-4,5.12-1.82,6.12,1.2A11.64,11.64,0,0,0,887.38,940Z"/>
        <path class="cls-2" d="M720.13,1029.1c3.33-2.16,6.6-4.38,10-6.38.48-.28,2.62.34,2.73.81.18.83-.33,2.45-1.06,2.72-3.6,1.34-7.37,2.35-11.09,3.48Z"/>
    </g>
    <text class="cls-3" transform="translate(404.48 1337.41)">hous<tspan class="cls-4" x="155.87" y="0">t</tspan>
        <tspan x="180.57" y="0">on</tspan>
        <tspan x="0" y="91.2">599.6 sqm</tspan>
    </text>
</svg>