<svg id="Layer_1" data-name="Layer 1" xmlns="http://www.w3.org/2000/svg" xmlns:xlink="http://www.w3.org/1999/xlink" viewBox="0 0 563.98 312.26"><defs><style>.cls-1,.cls-3{fill:none;}.cls-2{clip-path:url(#clip-path);}.cls-3{stroke:gray;stroke-miterlimit:10;stroke-width:2px;}.cls-4{clip-path:url(#clip-path-2);}.cls-5{font-size:12px;}.cls-11,.cls-5{fill:#1d1d1b;font-family:KozGoPro-ExtraLight-83pv-RKSJ-H, Kozuka Gothic Pro;}.cls-6{clip-path:url(#clip-path-3);}.cls-7{clip-path:url(#clip-path-4);}.cls-8{clip-path:url(#clip-path-5);}.cls-9{clip-path:url(#clip-path-6);}.cls-10{clip-path:url(#clip-path-7);}.cls-11{font-size:13px;}.cls-12{clip-path:url(#clip-path-8);}.cls-13{clip-path:url(#clip-path-9);}.cls-14{clip-path:url(#clip-path-10);}.cls-15{clip-path:url(#clip-path-11);}</style><clipPath id="clip-path"><rect class="cls-1" x="126.84" y="11.99" width="356.53" height="177.78"/></clipPath><clipPath id="clip-path-2"><rect class="cls-1" x="50.34" y="281.9" width="105.04" height="30.36"/></clipPath><clipPath id="clip-path-3"><rect class="cls-1" x="137.38" y="281.9" width="105.04" height="30.36"/></clipPath><clipPath id="clip-path-4"><rect class="cls-1" x="222.25" y="281.9" width="105.04" height="30.36"/></clipPath><clipPath id="clip-path-5"><rect class="cls-1" x="311.46" y="281.9" width="105.04" height="30.36"/></clipPath><clipPath id="clip-path-6"><rect class="cls-1" x="398.5" y="281.9" width="105.04" height="30.36"/></clipPath><clipPath id="clip-path-7"><rect class="cls-1" x="3.92" width="335.75" height="48.16"/></clipPath><clipPath id="clip-path-8"><rect class="cls-1" y="25.42" width="76.74" height="41.54"/></clipPath><clipPath id="clip-path-9"><rect class="cls-1" x="0.56" y="80.69" width="76.74" height="41.53"/></clipPath><clipPath id="clip-path-10"><rect class="cls-1" x="0.56" y="140.93" width="76.74" height="41.54"/></clipPath><clipPath id="clip-path-11"><rect class="cls-1" x="0.56" y="201.79" width="76.74" height="41.53"/></clipPath></defs><title>housing_bubble</title><g class="cls-2"><polyline class="cls-3" points="136.68 188.22 167.32 141.23 215.48 176.94 246.12 150.63 303.03 161.91 338.06 154.39 351.19 131.83 368.7 96.12 399.35 60.41 412.48 20.94 434.37 45.37 434.37 71.69 451.88 94.24 456.26 126.19 473.77 139.35"/></g><g class="cls-4"><text class="cls-5" transform="translate(90.02 298.44)">1970</text></g><g class="cls-6"><text class="cls-5" transform="translate(177.06 298.44)">1980</text></g><g class="cls-7"><text class="cls-5" transform="translate(261.93 298.44)">1990</text></g><g class="cls-8"><text class="cls-5" transform="translate(351.14 298.44)">2000</text></g><g class="cls-9"><text class="cls-5" transform="translate(438.18 298.44)">2010</text></g><g class="cls-10"><text class="cls-11" transform="translate(12.92 17.34)">real house price index, US, 1990 = 100</text></g><g class="cls-12"><text class="cls-5" transform="translate(9 41.96)">140</text></g><g class="cls-13"><text class="cls-5" transform="translate(9.56 97.23)">120</text></g><g class="cls-14"><text class="cls-5" transform="translate(9.56 157.47)">100</text></g><g class="cls-15"><text class="cls-5" transform="translate(9.56 218.33)">80</text></g></svg>