<svg id="Layer_1" data-name="Layer 1" xmlns="http://www.w3.org/2000/svg" xmlns:xlink="http://www.w3.org/1999/xlink" viewBox="0 0 563.98 312.26"><defs><style>.cls-1,.cls-5{fill:none;}.cls-2{clip-path:url(#clip-path);}.cls-3,.cls-4{font-size:13px;}.cls-3,.cls-6{fill:#1d1d1b;}.cls-3,.cls-4,.cls-6{font-family:KozGoPro-ExtraLight-83pv-RKSJ-H, Kozuka Gothic Pro;}.cls-4{fill:#595959;}.cls-5{stroke:#20c1c9;stroke-miterlimit:10;stroke-width:3px;}.cls-6{font-size:12px;}</style><clipPath id="clip-path"><rect class="cls-1" x="218.25" y="17.01" width="342.5" height="48.16"/></clipPath></defs><title>housing_bubble</title><g class="cls-2"><text class="cls-3" transform="translate(460.16 34.34)">CMBS issuance</text><text class="cls-4" transform="translate(476.98 49.94)">USD billions</text></g><line class="cls-5" x1="261.25" y1="269.39" x2="261.25" y2="265.42"/><line class="cls-5" x1="270.69" y1="269.68" x2="270.69" y2="265.99"/><line class="cls-5" x1="280.13" y1="269.68" x2="280.13" y2="258.62"/><line class="cls-5" x1="290.34" y1="269.53" x2="290.34" y2="257.06"/><line class="cls-5" x1="299.91" y1="269.39" x2="299.91" y2="256.35"/><line class="cls-5" x1="309.48" y1="269.53" x2="309.48" y2="257.06"/><line class="cls-5" x1="319.69" y1="269.53" x2="319.69" y2="250.26"/><line class="cls-5" x1="329.26" y1="269.53" x2="329.26" y2="242.04"/><line class="cls-5" x1="338.2" y1="269.53" x2="338.2" y2="213.41"/><line class="cls-5" x1="347.77" y1="269.53" x2="347.77" y2="226.73"/><line class="cls-5" x1="357.34" y1="269.53" x2="357.34" y2="234.1"/><line class="cls-5" x1="366.91" y1="269.53" x2="366.91" y2="218.23"/><line class="cls-5" x1="376.48" y1="269.53" x2="376.48" y2="229.85"/><line class="cls-5" x1="386.05" y1="269.53" x2="386.05" y2="210.01"/><line class="cls-5" x1="395.62" y1="269.53" x2="395.62" y2="198.95"/><line class="cls-5" x1="405.19" y1="269.53" x2="405.19" y2="139.99"/><line class="cls-5" x1="414.76" y1="269.53" x2="414.76" y2="114.2"/><line class="cls-5" x1="424.97" y1="269.53" x2="424.97" y2="93.22"/><line class="cls-5" x1="434.54" y1="269.53" x2="434.54" y2="261.6"/><line class="cls-5" x1="444.11" y1="269.96" x2="444.11" y2="266.84"/><line class="cls-5" x1="453.68" y1="269.53" x2="453.68" y2="261.6"/><text class="cls-6" transform="translate(524.34 80.22)">250</text><text class="cls-6" transform="translate(524.34 119.91)">200</text><text class="cls-6" transform="translate(524.34 157.47)">150</text><text class="cls-6" transform="translate(524.34 196.44)">100</text><text class="cls-6" transform="translate(524.34 236.13)">50</text></svg>