<svg id="Layer_1" data-name="Layer 1" xmlns="http://www.w3.org/2000/svg" viewBox="0 0 814 552"><defs><style>.cls-1{fill:none;stroke:gray;stroke-miterlimit:10;}.cls-2{font-size:12px;fill:#1d1d1b;font-family:KozGoPro-ExtraLight-83pv-RKSJ-H, Kozuka Gothic Pro;}</style></defs><title>housing_costs</title><polyline class="cls-1" points="94.62 360.09 111.12 360.09 124.62 366.09 128.25 371.75 131.5 370 135.25 371.75 140.75 369.25 152.75 371.75 169.75 368.5 178.5 363.25 197.75 351.25 214.75 336.5 227.5 317.25 237.5 293.75 242.5 286 247 286 253 290.25 257.25 295 260.5 300.5 267.75 305.5 273 305.5 277 308.5 282.25 311.75 287.25 313.5 293 319.5 305.75 324.5 321.5 337.5 333.75 338 348 344.5 361 336 369 325 372.5 326 380 312 384 308.75 391.5 292 396 280.25 401 261.25 404.75 249.25 408.75 238.5 414 227.75 421.25 230.75 429.25 229.75 437.75 211 442.75 208 445.75 208 450 201.5 452.75 198.75 467 151.75 479 104 483 101.75 487.25 97 491 102.25 512.25 132.75 514.5 137.5 528.75 206.75 532.25 209 540.75 228 543.75 229.75 552 229.25 556.5 233 559.5 236.75 563.75 243 568 254 571.75 261.5 575.75 264.5 581.75 265.25 584.75 261.5 588.75 253.5 594.75 238.25 597.75 229.25 602.75 203 606.75 192.5 612 184 614 179.25 618.75 176.75 620.5 174 643.5 121.5"/><text class="cls-2" transform="translate(646.96 123.93)">san fran</text></svg>