<svg id="Layer_1" data-name="Layer 1" 
    xmlns="http://www.w3.org/2000/svg" viewBox="0 0 2020.08 1649.67">
    <defs>
        <style>.cls-1{fill:#606060;}.cls-10,.cls-2,.cls-4,.cls-5,.cls-6,.cls-7,.cls-8,.cls-9{fill:none;stroke:#fff;stroke-miterlimit:10;}.cls-2{stroke-dasharray:12 20;}.cls-11,.cls-3{fill:#fff;}.cls-5{stroke-dasharray:11.68 19.46;}.cls-6{stroke-dasharray:12.15 20.26;}.cls-7{stroke-dasharray:11.93 19.88;}.cls-8{stroke-dasharray:11.61 19.36;}.cls-9{stroke-dasharray:11.88 19.79;}.cls-10{stroke-dasharray:11.97 19.94;}.cls-11{font-size:40px;font-family:MyriadPro-Regular, Myriad Pro;}.cls-12{letter-spacing:0em;}.cls-13{letter-spacing:0em;}.cls-14{letter-spacing:-0.01em;}.cls-15{letter-spacing:0em;}.cls-16{letter-spacing:-0.03em;}.cls-17{letter-spacing:0em;}.cls-18{letter-spacing:0em;}.cls-19{letter-spacing:0em;}.cls-20{letter-spacing:0em;}</style>
    </defs>
    <title>houstonComparison</title>
    <polyline class="cls-2" points="947.7 1429.3 947.7 474.88 271.92 474.88"/>
    <g id="O0L9vx.tif">
        <path class="cls-3" d="M893.49,118.19c2.69-3.42,5-6.48,7.5-9.49a5.45,5.45,0,0,1,2.26-1.62c2.8-1.11,3.81-2.1,1.2-3.45-1.5-.78-2.53-2.2,2.23-2,3.91.19,8,.76,10-.77a13,13,0,0,0,3.86-5.07,3,3,0,0,0-.07-3.37c-.78-1-3.06-1.8-4.79-2.65-1.35-.67-3-1.26-4.31-1.93-.53-.28-.24-.78-.84-1-5.69-2.22-4-5-4.51-7.57-.17-.89-2.74-1.88-5-2.49-3.38-.92-7.41-1.56-13-2.68,7.57-2.07,14-3.8,20.31-5.56,1-.27,2.25-.71,2.2-1s-1.54-.83-2.49-.85a9.21,9.21,0,0,0-3,.76c-5.21,2-10.3,4.09-15.74,6.06a12,12,0,0,1-4.36-.34,26.73,26.73,0,0,1-5.62-3.36,80.24,80.24,0,0,1-6.19-5.93c-2.15-2.21-.39-3.26,6.32-4q36.25-3.81,72-7.57a53.43,53.43,0,0,1,8.54-.57c3.06.2,6.72.8,8.42,1.63,5.49,2.68,10.17,5.58,15.34,8.4,7.36,4,15,8,22.48,12.13,12.17,6.72,24.38,13.61,37,20.59,1.94,1.08,4.4,2.06,6.26,3.16,3.41,2,2.74,2.72-3.38,3.43q-22.15,2.61-44.58,5.14Q951,112,899.38,117.89C897.27,118.13,895,118.12,893.49,118.19Z"/>
    </g>
    <g id="_6ZerFD.tif" data-name="6ZerFD.tif">
        <path class="cls-3" d="M1343.83,620.51a58.7,58.7,0,0,0-7.29.26c-9,1.32-14.64-.93-19.47-4.46a55.1,55.1,0,0,0-7.31-4.55,10.9,10.9,0,0,0-9.13-.53c-12.3,4.35-25.05,8.47-37.41,13-8.1,3-15.62,6.42-23.15,9.55L1265,657.59c4-2.86,7.36-5.29,10.83-7.65a7.26,7.26,0,0,1,3.21-1.19c.71-.07,2.35.71,2.34,1.11,0,.62-.84,1.4-1.77,1.82-3.59,1.6-7.37,3.09-11.11,4.62-2.68,1.09-2.78,2.12-1,3.71,10.9,9.65,21.92,19.49,32.72,29.64,3,2.79,6.46,3.37,11.47,2.69l1-4.62,4.87,2-1.84.39c.73,1.84.41,4.43,2.47,5.33,2.55,1.12,7.06.93,10.75,1,.59,0,2-1.26,1.85-1.89a59.69,59.69,0,0,0-1.84-6.81l2.36.66c2.79-1.57,5.62-3.11,8.34-4.7,3.74-2.2,2.37-6.43,9.55-7.3.63-.08.47-1.41,1.26-1.78a69,69,0,0,1,8.17-3.15c.39-.13,2,.87,4.42,2l-1.7-4.48,10.29-2c-1.55-1.77-2.88-3.18-4-4.62-.84-1.1-.82-2.61-2.23-3.3-6.51-3.18-3.66-6.76-1.5-9.81,3-4.21.8-8.17-2.09-11.61-4-4.79-10.42-9-15.58-13.44C1345.23,623.34,1344.91,622.2,1343.83,620.51Z"/>
        <path class="cls-3" d="M1343.83,620.51c1.08,1.69,1.4,2.83,2.46,3.74,5.16,4.46,11.55,8.65,15.58,13.44,2.89,3.44,5.07,7.4,2.09,11.61-2.16,3.05-5,6.63,1.5,9.81,1.41.69,1.39,2.2,2.23,3.3,1.12,1.44,2.45,2.85,4,4.62l-10.29,2,1.7,4.48c-2.42-1.1-4-2.1-4.42-2a69,69,0,0,0-8.17,3.15c-.79.37-.63,1.7-1.26,1.78-7.18.87-5.81,5.1-9.55,7.3-2.72,1.59-5.55,3.13-8.34,4.7l-2.36-.66a59.69,59.69,0,0,1,1.84,6.81c.1.63-1.26,1.91-1.85,1.89-3.69-.12-8.2.07-10.75-1-2.06-.9-1.74-3.49-2.47-5.33l1.84-.39-4.87-2-1,4.62c-5,.68-8.49.1-11.47-2.69-10.8-10.15-21.82-20-32.72-29.64-1.8-1.59-1.7-2.62,1-3.71,3.74-1.53,7.52-3,11.11-4.62.93-.42,1.75-1.2,1.77-1.82,0-.4-1.63-1.18-2.34-1.11a7.26,7.26,0,0,0-3.21,1.19c-3.47,2.36-6.81,4.79-10.83,7.65l-24.92-23.82c7.53-3.13,15-6.59,23.15-9.55,12.36-4.52,25.11-8.64,37.41-13a10.9,10.9,0,0,1,9.13.53,55.1,55.1,0,0,1,7.31,4.55c4.83,3.53,10.52,5.78,19.47,4.46A58.7,58.7,0,0,1,1343.83,620.51Z"/>
    </g>
    <path class="cls-3" d="M1112,499.69a94.3,94.3,0,0,0,31.1-.87c8.54-1.84,15-5.34,22.4-8.05,5.45-2,5.58-4.41,3.1-7-3.28-3.44-6.26-6.9-10-10.19-2.34-2.06-3.22-3.66,2.85-4.74-3.67-2.08-7.42-3.08-13.32-2.12-3.14.51-7.38,1.25-6.36-1.59.17-.48-2.51-1.64-3.64-1.59-3.82.15-8.4.29-11.12,1.21-6.43,2.18-12,4.82-17.88,7.33-1,.4-1.22,1.07-2.1,1.51a10.15,10.15,0,0,1-3.41,1.15c-.64.07-2.69-.81-2.49-1.07.4-.53,1.83-.94,2.89-1.37,1.59-.66,4.74-1.4,4.54-1.91-.63-1.6-2.54-3.25-7.55-2.94-3.63.23-8.54-.18-8.74,2.58-.07.93-3.27,1.9-5.27,2.76-1.27.55-3,.94-4.45,1.4a22.27,22.27,0,0,0,4.29,1.43c4.56.64,7.25,1.35,6.42,3.87-.46,1.43,2,4.07,4.6,4.41,9.47,1.28,9.62,4.35,10.52,7.57a4.51,4.51,0,0,0,3,3C1116.11,495.92,1118.28,497.33,1112,499.69Z"/>
    <path class="cls-3" d="M1112,499.69c6.29-2.36,4.12-3.77-.6-5.27a4.51,4.51,0,0,1-3-3c-.9-3.22-1.05-6.29-10.52-7.57-2.57-.34-5.06-3-4.6-4.41.83-2.52-1.86-3.23-6.42-3.87a22.27,22.27,0,0,1-4.29-1.43c1.5-.46,3.18-.85,4.45-1.4,2-.86,5.2-1.83,5.27-2.76.2-2.76,5.11-2.35,8.74-2.58,5-.31,6.92,1.34,7.55,2.94.2.51-3,1.25-4.54,1.91-1.06.43-2.49.84-2.89,1.37-.2.26,1.85,1.14,2.49,1.07a10.15,10.15,0,0,0,3.41-1.15c.88-.44,1.15-1.11,2.1-1.51,5.87-2.51,11.45-5.15,17.88-7.33,2.72-.92,7.3-1.06,11.12-1.21,1.13,0,3.81,1.11,3.64,1.59-1,2.84,3.22,2.1,6.36,1.59,5.9-1,9.65,0,13.32,2.12-6.07,1.08-5.19,2.68-2.85,4.74,3.73,3.29,6.71,6.75,10,10.19,2.48,2.61,2.35,5-3.1,7-7.39,2.71-13.86,6.21-22.4,8.05A94.3,94.3,0,0,1,1112,499.69Z"/>
    <g id="NjBM0x.tif">
        <path class="cls-3" d="M1105.54,369.57l-12.87,2.34a25.07,25.07,0,0,1-1.69-3.08c-2.15-5.66-4.2-11.25-6.25-16.78-.07-.21-.06-.46-.3-.59-8.14-4.63-15.59-9.52-24.54-13.58-3.7-1.68-6.61-2.95-5.8-5.28,1.17-3.41,1.73-6.57-4-9.29-1.31-.62-1.17-2-1.28-3-.51-5.14-.76-10.23-1.35-15.26-.3-2.54,1.75-4.21,6.83-5.32,1.82-.4,3-1.39,4.5-2.11-1.12-.48-2.87-1.45-3.26-1.34a23,23,0,0,0-4.87,1.95c-1.52.79-2.75,1.7-4.34,2.7-6.52-2.42-12.31-4.59-13.85-8.27-.89-2.14.47-3.71,3.84-5.36s5.7-3.93,8.56-5.89c1.24-.85,2.44-2,4.26-2.3,1-.19,3.6.83,4.9,1.52s2.63,1.67,2.84,2.57c1.19,5,8.91,8.51,14.05,12.64,3.48,2.81,5.26,5.57,5.89,8.82.92,4.7,3.62,9.37,5.2,14.14,2.53,7.66,4.41,15.48,7.38,23.34,1.25,3.29,4.58,6.43,6.83,9.69a46.53,46.53,0,0,1,2.36,4.38c1.77,3.27,3.61,6.55,5.37,9.87C1104.61,367.3,1105.1,368.59,1105.54,369.57Z"/>
    </g>
    <g id="njNm5L.tif">
        <path class="cls-3" d="M903.81,351.35l-20.15,12.2c-.6-3.86-1.23-7.21-1.52-10.57,0-.39,1.79-1.21,2.79-1.25,5.21-.22,10.43-.23,15.64-.37a13.42,13.42,0,0,0,2.46-.5Z"/>
        <path class="cls-3" d="M902.34,354.4l3.51,40-7.78.26-1.48,8.2,1.24.19a23.37,23.37,0,0,1,1.15-4.86c.4-.88,1.79-1.58,2.74-2.37,1.07.81,3,1.57,3.07,2.43a84.74,84.74,0,0,1,.16,10.46c-.12,5.39.79,6.1,8.76,6.94,9.06,1,18.2,1.78,27.13,3.17a11.56,11.56,0,0,1,6.89,4c3.63,5.36,8,10.88,9.18,16.64,1.11,5.24,5.17,11.27-2.5,16.52-1.87,1.27-2.06,5.31-.42,6.89,3.87,3.76,4.13,7.61,3.85,11.77-.11,1.65-.55,3.35-.22,5,.53,2.59,2,4,6.68,2.67,8.49-2.49,12.68-.23,17.83,5.1,6.35,6.58,4.37,14.21,8.18,21.16.79,1.43-5.25,4.58-8.21,6.91-1.18.93-2.51,1.77-3.78,2.66a16.17,16.17,0,0,0,2.6,1.53,20.8,20.8,0,0,0,3.36-2.5c2.55-2.17,5.06-4.36,8-6.94,1.43,1.44,2.62,2.17,2.94,3,1.13,3.07,3.83,4.6,8.26,5.39,2.22.39,4.06,2,6,3.05,1.67.9,3.12,2.1,5,2.72,8.7,2.91,9.72,6.23,2.9,10.67a11.41,11.41,0,0,1-4.2,1.8c-6.9,1.12-11.69,2.76-11.19,9.12.19,2.48-4.6,5.47-8,7.5-2.63,1.55-5.41,2.33-5.8,5.34-.25,1.9-2.28,4.16-4.5,5.17-1,.46-4.68-1.54-6.66-2.8a68.17,68.17,0,0,1-8.56-6.45c-3.49-3.11-5-6.24-.93-10,1.24-1.15.76-4.12-.52-5.55-2-2.24-5.32-3.91-8.15-5.75-4.46-2.89-8.6-6.11-13.56-8.44-4-1.91-9-2.9-13.77-3.85-.59-.11-3.67,2.74-3.27,3.78a37,37,0,0,0,5.72,9.64c2.07,2.58,5.35,4.68,7.64,7.21,4.67,5.17,2.37,10-5.55,12.19-11.4,3.15-13,2.28-15.72-6.28a34.53,34.53,0,0,0-6.84-11.59c-4.37-5.07-2.36-10.08,5.37-12.31,2.2-.64,5.21-2.38,5.31-3.69.45-6.26-1-12.21-8.07-16.71a7.68,7.68,0,0,0-8.24-.64A21.38,21.38,0,0,1,899.1,504c-4.51-.19-5.54-2.71-3.07-5.36,1.12-1.2,1.29-2.82,1.82-4.26a79.61,79.61,0,0,0,3.07-8.82c1-4,.53-7.81-7.55-10.24,8.07-.49,8.27-4.51,7.53-6.3-.84-2-5.6-3.21-9.73-5.31l2.86-6.06c4.1,3.2,6.94,5.71,10.27,7.91,1.84,1.21,4.47,1.89,6.75,2.81.72-1.47,2-2.94,2-4.41a8.86,8.86,0,0,1,4.59-8.05c2.73-1.74,2.64-3.92.34-6.18-7.09-7-13.85-14.05-20.56-21a4.24,4.24,0,0,1-1.33-2.5c-.23-6.42-.31-12.79-.43-19.09l-2.07.35c-.94-1.36-2.46-2.65-2.74-4.07-2.31-12-4.45-23.73-6.34-35.3a4.3,4.3,0,0,1,1.88-3.89C891,361.05,896.11,358.18,902.34,354.4Z"/>
    </g>
    <path class="cls-2" d="M770.16,773.83v0Z"/>
    <path class="cls-3" d="M737.78,873.2,731,878.42c-2-5.34-4-9.36-5-13.53-1-3.89-2.54-6.81-8-7.71-1.59-.26-3.87-1.89-3.83-2.9,0-1.36,1.67-3.37,3.27-4,3.81-1.41,4.42-3.46,2.92-5.86-5.09-8.12-6.71-16.81-7.73-25.57a6.88,6.88,0,0,0-2.25-4c-2.27-2.08-3.33-3.65-.4-6.32,1.12-1,.31-4.11-.94-5.56a40.2,40.2,0,0,0-8.72-7.41c-3-1.93-2.65-3.29-.38-5.54a40.67,40.67,0,0,0,6.92-8.68c1.91-3.43.41-6.34-4.58-7.35-5.35-1.08-5.9-4-3.75-6.87,7.66-10.12.65-18.06-4.84-26-4.55-6.56-10-12.68-15-18.93-.48-.6-1.24-1.41-1-2,3.63-8.09-4.24-12.53-9.48-17.75-1.46-1.46-2.38-3.24-4.1-4.49a45.91,45.91,0,0,0-9-5.33c-2.71-1.14-6.56-1-5.54-4.58.22-.78-2.69-2.07-4.45-2.77-3.91-1.55-5.53-3.7-5.3-7,.18-2.68-.67-5.36-1.34-8-.76-2.95-1.61-5.77,1.87-8.51a4.26,4.26,0,0,0,1.16-3c.65-5.53.52-11.09,2.06-16.45.64-2.2,4.67-4.17,7.38-6.07,3.14-2.19,6.53-4.2,9.79-6.28l-.46-.5-3.32.72c2-3.24-.05-5-4-5.91-4.81-1.17-3.42-3.95-2.21-6.1.48-.85,4-1.58,6-1.52,13.3.46,26.61,1,39.87,1.83,6.69.42,13.25,1.54,19.9,2.26a49.48,49.48,0,0,0,8.83.55c6-.44,9.37,1.16,9.64,5.12.35,5.25.73,5.37,8.33,4.46a67.46,67.46,0,0,1,10.82-.44c3.54.16,5.8,1.22,2.19,3.69-2.78,1.9-1.85,3.22,1.41,4.08,2.11.56,4.39.88,6.41,1.57,3.43,1.16,6.65,2.6,10.08,3.78,2.78.95,5.67,2.2,8.62,2.34s5.64,2.65,8.92.6a7.91,7.91,0,0,1,2.44,1.44C796,650,797.74,652,799.58,654l.93-.92c1.65.4,4.31.48,4.79,1.23,2.31,3.59-1.28,5.59-4.93,8.07,1.24-.14,2.74,0,3.67-.47,3.16-1.54,6.14-3.27,9.13-5,.74-.42,1.89-1,1.84-1.48-.71-6.82,5.58-4,11.49-3.6-.78,5.51-1.43,10.9-2.42,16.29-.15.79-1.85,1.91-3,2a5.43,5.43,0,0,1-3.51-1.59c-3.68-4.18-14.22-5.21-19.71-1.94a73.13,73.13,0,0,1-6.68,3.06c-5.47,2.56-4.82,6.54-4.73,10.35.08,3.07,2.77,4.25,6.92,4.44,13.75.64,27.49,1.48,41.27,2,8.9.36,8.48.36,7.66,6.59-.77,5.85-.11,11.9.52,17.92.13,1.27,2.56,3.08,4.43,3.55a75.32,75.32,0,0,0,13.55,2.13c10.84.66,21.72,1.06,32.6,1.37,4.11.12,6.12,1.35,6.19,4.24.23,10.5,4,13.12-14.12,12.25-8.76-.41-17.52-.68-26.26-1.11-6-.29-9.23,1.24-9,6a4.72,4.72,0,0,1-2.93,3.84c-6.66,2.11-10.56,5.54-12.52,10.73-.68,1.78-3.78,3-5.77,4.53l7.9-1.07c-.31,5-.76,9.53-.75,14.09,0,1.37,1.62,4,2,4,7.44-1,9.73,6.16,16.73,5.59"/>
    <path class="cls-3" d="M848,783.93c5.29-5.67,11.69-5.59,19.25-3.26.21,9.39.48,18.89.58,28.5,0,3.39,1.37,5,6.41,5A154.52,154.52,0,0,1,894,815.8c1.72.24,4.08,2.29,4.44,3.7.85,3.36.69,6.85.93,10.31.47,6.85,1.94,8.53,10.75,9.69,8.21,1.09,16.52,1.75,24.8,2.1,9.13.39,13,2.83,15.36,9.78,1.24,3.71,3.58,7.27,5.7,11.44-5.09.61-9,3.64-6.86,10.48L975.74,876c.2-4.67.38-8.91.58-13.61,2.9.47,5.27,1.13,7.56,1.13,1.69,0,4.54-.59,4.71-1.36,1.23-5.61,6.46-4.25,11.25-3.58a26.59,26.59,0,0,1,5.79,1.47c8.47,3.21,8.62,3.88,2.79,8.66-1.45,1.19-2.27,2.87-3.79,4s-3.43,1.75-5.6,2.81c4.69,3.44,8.7,4.84,12.24-.21,3.77,3.29,9.1,5.17,7.47,10.12-.09.26.24.76.56,1,8.34,5.9,1.39,7.49-3.3,10.14-1.35-1-2.4-2.15-3.75-2.64a20.17,20.17,0,0,0-6.85-1.45c-.68,0-.95,2.59-1.44,4-1.06,3,1.43,7.64-5,8.5-.56.08-.44,2.26-.58,3.14-1.74.18-4.65.09-7.1.82-5.49,1.65-10,1.27-11.77-4.16-2.24-6.81-7.4-9.36-15.64-9.41-7,0-8.67-6-13-9-3.21-2.22-5.69-5.11-8.46-7.66-1.4.74-2.36,1-2.4,1.31-.71,7.51-7.26,6.17-13.57,5.13-4.2-.69-8.39-1.44-12.8-2.2-1.86,9.62-3.72,19.26-5.67,29.38l-14.86-.83c.08-5.25.15-10.09.22-15.12-7.28-1-14.1-4.29-20.8-.56-1.24.69-1.69,2.32-2.39,3.57-.92,1.65-1.15,4.07-2.72,4.87-2.78,1.42-6,3-9.52-.37-4.83-4.5-9.93-9-15.88-12.36-4.41-2.47-10.29-3.78-15.68-4.36-10.61-1.13-21.35-1.39-32-2-6.2-.38-8.38,2.31-8.63,6.84-.16,3-.79,6-1.12,8.31-14.13,1.44-27.26,2.73-40.38,4.15-5.61.6-10.09.89-10.85-5.38s-3.49-12.49-4.39-18.76c-.31-2.21,1.36-5.36,3.45-7m137.25-23.58,1.31,1.19c1.84-1.05,4.43-1.79,5.35-3.21,1.74-2.71,2.52-5.81,3.7-8.73l-1.94-.53C876.49,842.68,878,848.42,869.63,849.66Z"/>
    <line class="cls-2" x1="271.92" y1="776.82" x2="770.16" y2="773.83"/>
    <polyline class="cls-2" points="964.99 1085.85 964.99 96.88 271.92 96.88"/>
    <line class="cls-4" x1="1120.41" y1="1066.74" x2="1120.41" y2="1060.74"/>
    <line class="cls-5" x1="1120.41" y1="1041.28" x2="1120.41" y2="490.61"/>
    <polyline class="cls-4" points="1120.41 480.88 1120.41 474.88 1126.41 474.88"/>
    <line class="cls-6" x1="1146.67" y1="474.88" x2="1719.94" y2="474.88"/>
    <line class="cls-4" x1="1730.07" y1="474.88" x2="1736.07" y2="474.88"/>
    <line class="cls-4" x1="1240.19" y1="1140.67" x2="1240.19" y2="1134.67"/>
    <line class="cls-7" x1="1240.19" y1="1114.78" x2="1240.19" y2="647.51"/>
    <polyline class="cls-4" points="1240.19 637.57 1240.19 631.57 1246.19 631.57"/>
    <line class="cls-8" x1="1265.55" y1="631.57" x2="1720.39" y2="631.57"/>
    <line class="cls-4" x1="1730.07" y1="631.57" x2="1736.07" y2="631.57"/>
    <line class="cls-4" x1="1065.98" y1="1206.2" x2="1065.98" y2="1200.2"/>
    <line class="cls-9" x1="1065.98" y1="1180.41" x2="1065.98" y2="335.25"/>
    <polyline class="cls-4" points="1065.98 325.35 1065.98 319.35 1071.98 319.35"/>
    <line class="cls-10" x1="1091.92" y1="319.35" x2="1720.1" y2="319.35"/>
    <line class="cls-4" x1="1730.07" y1="319.35" x2="1736.07" y2="319.35"/>
    <text class="cls-11" transform="translate(139.04 752.37)">chicago<tspan x="40.64" y="48">227.1</tspan>
    </text>
    <text class="cls-11" transform="translate(1736.07 314.58)">manh<tspan class="cls-12" x="97.04" y="0">a</tspan>
        <tspan class="cls-13" x="116.16" y="0">ttan</tspan>
        <tspan x="0" y="48">22.83</tspan>
    </text>
    <text class="cls-11" transform="translate(234.44 88.58)">dc<tspan x="-49.88" y="48">61.05</tspan>
    </text>
    <text class="cls-11" transform="translate(154.43 470.02)">bos<tspan class="cls-14" x="60.56" y="0">t</tspan>
        <tspan x="73.56" y="0">on</tspan>
        <tspan x="27.36" y="48">48.28</tspan>
    </text>
    <text class="cls-11" transform="translate(1740.5 624.78)">
        <tspan class="cls-15">S</tspan>
        <tspan x="19.84" y="0">an </tspan>
        <tspan class="cls-16" x="69.8" y="0">F</tspan>
        <tspan class="cls-17" x="88.24" y="0">r</tspan>
        <tspan class="cls-18" x="101.12" y="0">an</tspan>
        <tspan x="0" y="48">46.87</tspan>
    </text>
    <text class="cls-11" transform="translate(1737.87 464.68)">
        <tspan class="cls-15">S</tspan>
        <tspan x="19.84" y="0">a</tspan>
        <tspan class="cls-12" x="39.12" y="0">n</tspan>
        <tspan class="cls-13" x="61.16" y="0">ta Ba</tspan>
        <tspan class="cls-19" x="143.12" y="0">r</tspan>
        <tspan x="156.36" y="0">ba</tspan>
        <tspan class="cls-20" x="198.4" y="0">r</tspan>
        <tspan x="211.28" y="0">a</tspan>
        <tspan x="0" y="48">19.468</tspan>
    </text>
</svg>