<svg id="Layer_1" data-name="Layer 1" 
    xmlns="http://www.w3.org/2000/svg" viewBox="0 0 2020.08 1649.67">
    <defs>
        <style>.cls-1{fill:#606060;}.cls-2{fill:none;stroke:#fff;stroke-miterlimit:10;stroke-width:3px;}</style>
    </defs>
    <title>houstonComparison</title>
    <g id="O0L9vx.tif">
        <path class="cls-2" d="M912,1173.55c2.52-7.75,4.71-14.65,7-21.47a8.87,8.87,0,0,1,2.16-3.67c2.7-2.5,3.66-4.75,1.05-7.8-1.5-1.76-2.55-5,2.12-4.45,3.82.43,7.81,1.72,9.74-1.75s2.83-7.59,3.61-11.46a14.53,14.53,0,0,0-.19-7.64c-.79-2.21-3-4.07-4.77-6-1.35-1.5-3-2.84-4.28-4.36-.53-.63-.27-1.77-.86-2.3-5.65-5-4.08-11.22-4.67-17.13-.2-2-2.75-4.26-4.95-5.64-3.34-2.1-7.3-3.53-12.8-6.09,7.34-4.67,13.57-8.6,19.69-12.59,1-.61,2.18-1.61,2.12-2.36s-1.54-1.89-2.47-1.92-2.09,1-2.9,1.72c-5,4.56-9.94,9.26-15.2,13.74-.55.47-3.58,0-4.29-.77a37.31,37.31,0,0,1-5.62-7.63c-2.35-4.41-4.31-8.94-6.26-13.43-2.19-5-.5-7.41,6-9q35.37-8.65,70.26-17.18c2.73-.66,5.76-1.7,8.34-1.3,3,.47,6.62,1.82,8.31,3.7,5.46,6.09,10.13,12.67,15.29,19.07,7.34,9.09,15,18.17,22.4,27.49,12.13,15.23,24.28,30.83,36.8,46.65,1.93,2.44,4.37,4.64,6.23,7.14,3.39,4.58,2.75,6.15-3.21,7.77-14.39,3.92-28.9,7.75-43.45,11.61q-49.26,13.1-99.5,26.38A36.46,36.46,0,0,1,912,1173.55Z"/>
    </g>
    <path class="cls-2" d="M760.79,1213.7l-6.91,5.52c-1.54-5.65-3.1-9.91-3.79-14.32-.63-4.12-1.89-7.21-7.11-8.16-1.51-.28-3.57-2-3.45-3.08a6.38,6.38,0,0,1,3.46-4.19c3.77-1.5,4.53-3.67,3.27-6.21-4.24-8.61-5.12-17.82-5.4-27.12a7,7,0,0,0-1.85-4.23c-2-2.2-2.91-3.87.13-6.7,1.15-1.08.62-4.36-.47-5.91a35.7,35.7,0,0,0-7.81-7.86c-2.77-2.06-2.28-3.5.08-5.89a47.55,47.55,0,0,0,7.35-9.22c2.11-3.64.9-6.74-3.82-7.81-5.07-1.16-5.37-4.29-3.07-7.31,8.18-10.77,2.06-19.22-2.6-27.66-3.87-7-8.69-13.5-13-20.16-.41-.64-1.08-1.51-.8-2.08,4.14-8.64-3.1-13.36-7.74-18.94-1.3-1.55-2-3.45-3.61-4.78a39.22,39.22,0,0,0-8.28-5.7c-2.53-1.21-6.26-1-5-4.89.27-.83-2.43-2.21-4.08-3-3.65-1.66-5-3.95-4.57-7.49.39-2.86-.22-5.72-.66-8.51-.51-3.16-1.11-6.16,2.47-9.1a5.15,5.15,0,0,0,1.36-3.19c1.06-5.92,1.36-11.86,3.28-17.6.78-2.34,4.83-4.45,7.61-6.49,3.2-2.34,6.64-4.5,10-6.72l-.41-.53-3.27.77c2.2-3.47.35-5.3-3.41-6.33-4.56-1.26-3-4.23-1.66-6.53.53-.92,4-1.7,5.88-1.63,12.82.49,25.65,1.07,38.4,2,6.43.45,12.68,1.65,19.05,2.42a42.45,42.45,0,0,0,8.5.58c5.86-.46,9,1.25,8.9,5.49-.09,5.62.27,5.74,7.69,4.78a59.71,59.71,0,0,1,10.5-.48c3.4.18,5.5,1.31,1.81,3.95-2.84,2-2.05,3.45,1,4.37,2,.6,4.17.94,6.07,1.67,3.22,1.24,6.21,2.79,9.43,4,2.61,1,5.3,2.36,8.13,2.5s5.23,2.84,8.57.65a6.76,6.76,0,0,1,2.25,1.54c1.71,2.06,3.26,4.22,4.88,6.35l1-1c1.56.42,4.13.51,4.53,1.31,1.93,3.84-1.7,6-5.43,8.63,1.21-.15,2.65,0,3.58-.5,3.19-1.65,6.2-3.5,9.23-5.31.75-.44,1.9-1.08,1.9-1.58-.12-7.3,5.72-4.3,11.39-3.84-1.2,5.89-2.28,11.64-3.68,17.41-.2.84-1.94,2-3,2.1a4.61,4.61,0,0,1-3.26-1.7c-3.21-4.46-13.3-5.56-18.87-2.07-2,1.28-4.47,2.16-6.7,3.27-5.5,2.73-5.19,7-5.41,11.05-.18,3.28,2.32,4.54,6.31,4.74,13.22.69,26.42,1.59,39.67,2.18,8.55.39,8.15.39,6.85,7-1.23,6.25-1.1,12.7-1,19.11,0,1.36,2.21,3.29,4,3.79a63.93,63.93,0,0,0,12.89,2.27c10.41.71,20.86,1.14,31.33,1.46,4,.13,5.79,1.44,5.61,4.52-.66,11.2,2.76,14-14.64,13.06-8.41-.44-16.83-.73-25.23-1.18-5.78-.31-9,1.32-9.19,6.42a5.53,5.53,0,0,1-3.14,4.1c-6.6,2.24-10.64,5.9-13,11.42-.8,1.89-3.89,3.23-5.94,4.82l7.71-1.14c-.71,5.32-1.52,10.14-1.89,15-.11,1.46,1.24,4.25,1.56,4.21,7.24-1,8.86,6.54,15.64,5.94"/>
    <path class="cls-2" d="M874.05,1119c5.57-6,11.72-5.94,18.81-3.47-.58,10-1.11,20.07-1.81,30.27-.25,3.61.9,5.31,5.75,5.35a131.31,131.31,0,0,1,18.91,1.69,5.91,5.91,0,0,1,4,3.93c.54,3.57.09,7.27,0,10.93-.12,7.27,1.16,9,9.54,10.28,7.8,1.15,15.74,1.85,23.66,2.23,8.75.41,12.29,3,14,10.36.88,3.93,2.83,7.7,4.51,12.12-5,.64-8.94,3.85-7.49,11.09l25.35,2.83c.59-4.93,1.13-9.42,1.72-14.41,2.75.5,5,1.2,7.17,1.21,1.62,0,4.42-.63,4.64-1.44,1.66-6,6.57-4.5,11.12-3.8a23.16,23.16,0,0,1,5.45,1.56c7.86,3.4,7.95,4.11,1.93,9.17-1.5,1.26-2.43,3-4,4.24a38.21,38.21,0,0,1-5.63,3c4.21,3.65,8,5.13,11.78-.22,3.34,3.49,8.3,5.48,6.3,10.72a1.23,1.23,0,0,0,.46,1c7.5,6.24.69,7.92-4,10.72-1.21-1-2.12-2.27-3.38-2.79a16.82,16.82,0,0,0-6.45-1.53c-.66,0-1.14,2.74-1.73,4.22-1.28,3.22.72,8.07-5.54,9-.54.07-.61,2.38-.82,3.31-1.69.19-4.48.09-6.89.87-5.41,1.74-9.7,1.34-11-4.4-1.57-7.2-6.31-9.89-14.22-9.94-6.74,0-7.81-6.37-11.73-9.56-2.89-2.35-5-5.4-7.48-8.1-1.41.79-2.35,1-2.41,1.38-1.33,8-7.5,6.53-13.48,5.43-4-.73-7.94-1.52-12.1-2.33-2.6,10.18-5.19,20.37-7.92,31.06l-14.19-.87,1.47-16c-6.91-1.07-13.19-4.54-19.93-.59-1.25.73-1.82,2.45-2.59,3.77-1,1.74-1.44,4.3-3,5.15-2.78,1.5-6,3.12-9.11-.39-4.27-4.76-8.8-9.56-14.23-13.07-4-2.61-9.58-4-14.71-4.61-10.1-1.2-20.4-1.47-30.6-2.15-5.92-.4-8.23,2.45-8.83,7.24-.4,3.18-1.25,6.35-1.75,8.78-13.69,1.53-26.4,2.89-39.12,4.39-5.43.64-9.76.94-10-5.69s-2.35-13.21-2.72-19.84c-.13-2.33,1.73-5.67,3.87-7.39m133.85-25,1.16,1.25c1.86-1.11,4.41-1.89,5.41-3.4,1.9-2.87,2.91-6.15,4.28-9.24l-1.81-.57C896.62,1181.37,897.62,1187.46,889.44,1188.77Z"/>
    <g id="_6ZerFD.tif" data-name="6ZerFD.tif">
        <path class="cls-2" d="M1254.81,1150.5c-2.34,1.69-2.14,3.28.12,5.75,13.65,14.91,27.47,30.12,41.16,45.79,3.78,4.32,7.39,5.22,12.15,4.16l-.32-7.14,5.41,3.1-1.71.6c1.27,2.83,1.71,6.83,4,8.23,2.85,1.73,7.27,1.43,11,1.63.59,0,1.56-1.95,1.27-2.92-1-3.54-2.51-7-3.82-10.52l2.53,1c2.3-2.43,4.66-4.8,6.88-7.26,3-3.4.45-9.94,7.31-11.28.6-.12,0-2.19.73-2.75a43.78,43.78,0,0,1,7.16-4.87c.36-.2,2.24,1.34,5,3-1.41-3.27-2.36-5.45-3-6.93l9.61-3.05c-2.06-2.75-3.79-4.92-5.32-7.15-1.16-1.69-1.59-4-3.19-5.1-7.38-4.91-5.61-10.45-4.37-15.16,1.72-6.51-1.61-12.64-5.49-18-5.4-7.4-13-13.89-19.4-20.78-1.32-1.42-2-3.18-3.54-5.79-1.74.08-4.69-.19-7.16.41-8.47,2-14.78-1.44-20.61-6.91a76.4,76.4,0,0,0-8.59-7c-2.94-2-6-2.82-9.2-.83-10.91,6.73-22.34,13.1-33.26,20.1-7.15,4.58-13.59,9.93-20.13,14.76l31.74,36.83"/>
        <path class="cls-2" d="M1251.72,1152.5,1220,1115.67c6.54-4.83,13-10.18,20.13-14.76,10.92-7,22.35-13.37,33.26-20.1,3.22-2,6.26-1.21,9.2.83a76.4,76.4,0,0,1,8.59,7c5.83,5.47,12.14,8.94,20.61,6.91,2.47-.6,5.42-.33,7.16-.41,1.57,2.61,2.22,4.37,3.54,5.79,6.42,6.89,14,13.38,19.4,20.78,3.88,5.31,7.21,11.44,5.49,18-1.24,4.71-3,10.25,4.37,15.16,1.6,1.06,2,3.41,3.19,5.1,1.53,2.23,3.26,4.4,5.32,7.15l-9.61,3.05c.63,1.48,1.58,3.66,3,6.93-2.72-1.71-4.6-3.25-5-3a43.78,43.78,0,0,0-7.16,4.87c-.68.56-.13,2.63-.73,2.75-6.86,1.34-4.26,7.88-7.31,11.28-2.22,2.46-4.58,4.83-6.88,7.26l-2.53-1c1.31,3.49,2.79,7,3.82,10.52.29,1-.68,3-1.27,2.92-3.69-.2-8.11.1-11-1.63-2.31-1.4-2.75-5.4-4-8.23l1.71-.6-5.41-3.1.32,7.14c-4.76,1.06-8.37.16-12.15-4.16-13.69-15.67-27.51-30.88-41.16-45.79-2.26-2.47-2.46-4.06-.12-5.75"/>
    </g>
    <path class="cls-2" d="M1121.14,1107c11.26,2.65,21.26,1.85,29.16-1.58,7.7-3.34,13.13-9.69,19.58-14.62,4.76-3.63,4.42-8,1.58-12.75-3.75-6.25-7.23-12.56-11.39-18.55-2.6-3.74-3.75-6.65,1.77-8.62-3.86-3.79-7.6-5.62-13-3.87-2.87.94-6.73,2.28-6.31-2.9.06-.87-2.7-3-3.76-2.9-3.57.29-7.88.53-10.27,2.21-5.65,4-10.41,8.78-15.47,13.35-.81.73-.93,2-1.68,2.76a6.29,6.29,0,0,1-3,2.1c-.59.12-2.69-1.49-2.56-2,.27-1,1.55-1.71,2.46-2.51,1.37-1.19,4.2-2.55,3.91-3.48-.9-2.91-3-5.91-7.71-5.34-3.37.41-8.1-.33-7.74,4.69.12,1.7-2.72,3.46-4.44,5a27.62,27.62,0,0,1-3.93,2.54c1.44.89,2.74,2.17,4.34,2.6,4.42,1.17,7.1,2.45,6.82,7-.16,2.6,2.71,7.4,5.21,8,9.19,2.32,9.92,7.9,11.4,13.74.48,1.91,1.62,4.36,3.42,5.4C1124.29,1100.18,1126.61,1102.73,1121.14,1107Z"/>
    <path class="cls-2" d="M1121.14,1107c5.47-4.28,3.15-6.83-1.6-9.57-1.8-1-2.94-3.49-3.42-5.4-1.48-5.84-2.21-11.42-11.4-13.74-2.5-.63-5.37-5.43-5.21-8,.28-4.59-2.4-5.87-6.82-7-1.6-.43-2.9-1.71-4.34-2.6a27.62,27.62,0,0,0,3.93-2.54c1.72-1.58,4.56-3.34,4.44-5-.36-5,4.37-4.28,7.74-4.69,4.68-.57,6.81,2.43,7.71,5.34.29.93-2.54,2.29-3.91,3.48-.91.8-2.19,1.54-2.46,2.51-.13.46,2,2.07,2.56,2a6.29,6.29,0,0,0,3-2.1c.75-.81.87-2,1.68-2.76,5.06-4.57,9.82-9.37,15.47-13.35,2.39-1.68,6.7-1.92,10.27-2.21,1.06-.09,3.82,2,3.76,2.9-.42,5.18,3.44,3.84,6.31,2.9,5.39-1.75,9.13.08,13,3.87-5.52,2-4.37,4.88-1.77,8.62,4.16,6,7.64,12.3,11.39,18.55,2.84,4.75,3.18,9.12-1.58,12.75-6.45,4.93-11.88,11.28-19.58,14.62C1142.4,1108.86,1132.4,1109.66,1121.14,1107Z"/>
    <g id="NjBM0x.tif">
        <path class="cls-2" d="M1042.51,1183.52c-7.07-4.77-13.36-9-15.37-16.24-1.17-4.19.06-7.28,3.39-10.51s5.48-7.71,8.23-11.55c1.2-1.67,2.33-3.84,4.18-4.51,1-.37,3.84,1.63,5.27,3a10.5,10.5,0,0,1,3.25,5c1.81,9.74,10.25,16.67,16.07,24.78a39.17,39.17,0,0,1,7.16,17.3c1.5,9.23,4.86,18.41,7.06,27.8,3.53,15.05,6.39,30.44,10.41,45.93,1.68,6.48,5.52,12.66,8.25,19.08,1.2,2.82,2,5.76,3,8.65,2.24,6.44,4.54,12.92,6.77,19.46.85,2.5,1.51,5,2.08,7l-13.17,4.64c-.7-2-1.59-4-2.13-6.1-2.9-11.16-5.69-22.2-8.48-33.11-.1-.39-.11-.89-.38-1.16-9-9.11-17.37-18.74-27.18-26.75-4.06-3.32-7.23-5.81-6.66-10.4.84-6.7,1.06-12.91-5.25-18.28-1.43-1.22-1.45-3.93-1.68-6-1.12-10.1-4-29.22-5.19-39"/>
    </g>
    <g id="njNm5L.tif">
        <path class="cls-2" d="M881.32,1216.33c-.62-6.17-1.28-11.53-1.54-16.88,0-.63,2.05-1.94,3.18-2,5.91-.35,11.83-.36,17.75-.58a12.15,12.15,0,0,0,2.8-.8l.88.78"/>
        <path class="cls-2" d="M903.44,1195.46c1.17,21.6,1.51,48.64,2.66,70.28l-8.87.43"/>
        <path class="cls-2" d="M1004.25,1454.31c1.64,2.37,3,3.58,3.37,5,1.3,5.07,4.41,7.59,9.52,8.89,2.57.66,4.69,3.28,7,5,1.92,1.49,3.61,3.47,5.74,4.49,10.06,4.82,11.23,10.31,3.34,17.67a11.5,11.5,0,0,1-4.85,3c-8,1.84-13.55,4.57-13,15.14.21,4.12-5.35,9.08-9.31,12.46-3.05,2.59-6.28,3.88-6.75,8.9a13,13,0,0,1-5.24,8.62c-1.16.76-5.42-2.57-7.71-4.68a88.12,88.12,0,0,1-9.89-10.74c-4-5.18-5.71-10.39-1-16.57,1.45-1.91.91-6.84-.56-9.21-2.31-3.7-6.12-6.48-9.38-9.52-5.14-4.8-9.9-10.13-15.61-14-4.64-3.14-10.4-4.78-15.87-6.35-.69-.2-4.28,4.53-3.83,6.25a70.2,70.2,0,0,0,6.51,16c2.36,4.28,6.15,7.76,8.77,12,5.36,8.58,2.64,16.63-6.56,20.27-13.25,5.25-15.07,3.79-18.15-10.46a65.82,65.82,0,0,0-7.76-19.23c-5-8.41-2.6-16.7,6.36-20.39,2.56-1,6.06-3.93,6.18-6.1.6-10.32-1.06-20.14-9.1-27.55-2.88-2.66-5.45-3.58-9.49-1.05-2.77,1.73-6.83,2.26-10.2,2.05-5.2-.31-6.34-4.46-3.46-8.82,1.31-2,1.54-4.64,2.16-7,1.29-4.84,2.83-9.63,3.68-14.49,1.15-6.57.72-12.8-8.54-16.78,9.29-.79,9.58-7.38,8.75-10.3-.93-3.27-6.38-5.25-11.09-8.68.54-1.59,1.62-4.76,3.38-9.89,4.66,5.23,7.89,9.32,11.67,12.91,2.1,2,5.11,3.09,7.72,4.59.84-2.4,2.31-4.79,2.39-7.19.15-5.09,1.2-9.39,5.37-13.14,3.16-2.84,3.08-6.38.47-10.07-8-11.39-15.67-22.83-23.26-34.12a8,8,0,0,1-1.48-4c-.17-10.39-.16-20.68-.2-30.86l-2.37.56c-1.05-2.18-2.77-4.28-3.06-6.55q-3.67-28.9-6.65-56.72a8.21,8.21,0,0,1,2.19-6.22"/>
        <path class="cls-2" d="M898.22,1271.85c.47-1.41,2.07-2.55,3.15-3.81,1.21,1.3,3.38,2.52,3.47,3.91.37,5.56.17,11.21,0,16.87-.21,8.7.82,9.84,9.91,11.21,10.34,1.55,20.77,2.87,31,5.12a13.13,13.13,0,0,1,7.84,6.39c4.1,8.69,9,17.63,10.36,27,1.23,8.52,5.84,18.33-3,26.87-2.16,2.09-2.41,8.67-.54,11.26,4.41,6.12,4.68,12.42,4.33,19.23-.14,2.71-.66,5.48-.29,8.14.58,4.24,2.32,6.6,7.66,4.37,9.79-4.07,14.59-.38,20.49,8.36,7.29,10.81,5,23.35,9.33,34.81"/>
    </g>
</svg>