<svg id="Layer_1" data-name="Layer 1" xmlns="http://www.w3.org/2000/svg" xmlns:xlink="http://www.w3.org/1999/xlink" viewBox="0 0 774.72 444.54"><defs><style>.cls-1,.cls-21{fill:none;}.cls-2{clip-path:url(#clip-path);}.cls-3{font-size:12px;}.cls-26,.cls-3{fill:#1d1d1b;font-family:KozGoPro-ExtraLight-83pv-RKSJ-H, Kozuka Gothic Pro;}.cls-4{clip-path:url(#clip-path-2);}.cls-5{clip-path:url(#clip-path-3);}.cls-6{clip-path:url(#clip-path-4);}.cls-7{clip-path:url(#clip-path-5);}.cls-8{clip-path:url(#clip-path-6);}.cls-9{clip-path:url(#clip-path-7);}.cls-10{clip-path:url(#clip-path-8);}.cls-11{clip-path:url(#clip-path-9);}.cls-12{clip-path:url(#clip-path-10);}.cls-13{clip-path:url(#clip-path-11);}.cls-14{clip-path:url(#clip-path-12);}.cls-15{clip-path:url(#clip-path-13);}.cls-16{clip-path:url(#clip-path-14);}.cls-17{clip-path:url(#clip-path-15);}.cls-18{clip-path:url(#clip-path-16);}.cls-19{clip-path:url(#clip-path-17);}.cls-20{clip-path:url(#clip-path-18);}.cls-21{stroke:gray;stroke-miterlimit:10;}.cls-22{clip-path:url(#clip-path-19);}.cls-23{clip-path:url(#clip-path-20);}.cls-24{opacity:0.7;}.cls-25{clip-path:url(#clip-path-21);}.cls-26,.cls-27{font-size:15px;}.cls-27{fill:#20c2ca;font-family:KozGoPro-Bold-83pv-RKSJ-H, Kozuka Gothic Pro;}</style><clipPath id="clip-path"><rect class="cls-1" x="83.62" y="201.66" width="57.68" height="24.01"/></clipPath><clipPath id="clip-path-2"><rect class="cls-1" x="83.62" y="123.71" width="57.68" height="24.01"/></clipPath><clipPath id="clip-path-3"><rect class="cls-1" x="83.62" y="52.84" width="57.68" height="24.01"/></clipPath><clipPath id="clip-path-4"><rect class="cls-1" x="83.62" y="230.84" width="57.68" height="24.01"/></clipPath><clipPath id="clip-path-5"><rect class="cls-1" x="83.62" y="259.94" width="57.68" height="24.01"/></clipPath><clipPath id="clip-path-6"><rect class="cls-1" x="83.62" y="289.05" width="57.68" height="24.01"/></clipPath><clipPath id="clip-path-7"><rect class="cls-1" x="83.62" y="319.98" width="57.68" height="24.01"/></clipPath><clipPath id="clip-path-8"><rect class="cls-1" x="83.62" y="348.72" width="57.68" height="24.01"/></clipPath><clipPath id="clip-path-9"><rect class="cls-1" x="124.72" y="405.35" width="57.68" height="39.18"/></clipPath><clipPath id="clip-path-10"><rect class="cls-1" x="175.04" y="405.35" width="57.68" height="39.18"/></clipPath><clipPath id="clip-path-11"><rect class="cls-1" x="233.86" y="405.35" width="57.68" height="39.18"/></clipPath><clipPath id="clip-path-12"><rect class="cls-1" x="285.59" y="405.35" width="57.68" height="39.18"/></clipPath><clipPath id="clip-path-13"><rect class="cls-1" x="344.41" y="405.35" width="57.68" height="39.18"/></clipPath><clipPath id="clip-path-14"><rect class="cls-1" x="401.1" y="405.35" width="57.68" height="39.18"/></clipPath><clipPath id="clip-path-15"><rect class="cls-1" x="457.09" y="405.35" width="57.68" height="39.18"/></clipPath><clipPath id="clip-path-16"><rect class="cls-1" x="513.07" y="405.35" width="57.68" height="39.18"/></clipPath><clipPath id="clip-path-17"><rect class="cls-1" x="568.35" y="405.35" width="57.68" height="39.18"/></clipPath><clipPath id="clip-path-18"><rect class="cls-1" x="130.05" y="332.38" width="471.96" height="58.3"/></clipPath><clipPath id="clip-path-19"><rect class="cls-1" x="365" y="344.84" width="682.72" height="48.16"/></clipPath><clipPath id="clip-path-20"><rect class="cls-1" x="365" y="344.84" width="682.72" height="48.16"/></clipPath><clipPath id="clip-path-21"><rect class="cls-1" x="365" y="344.84" width="682.72" height="48.16"/></clipPath></defs><title>housing_not_competitive</title><g class="cls-2"><text class="cls-3" transform="translate(101.24 218.2)">28%</text></g><g class="cls-4"><text class="cls-3" transform="translate(101.24 140.25)">40%</text></g><g class="cls-5"><text class="cls-3" transform="translate(101.24 69.38)">50%</text></g><g class="cls-6"><text class="cls-3" transform="translate(101.24 247.38)">24%</text></g><g class="cls-7"><text class="cls-3" transform="translate(101.24 276.48)">20%</text></g><g class="cls-8"><text class="cls-3" transform="translate(101.24 305.59)">16%</text></g><g class="cls-9"><text class="cls-3" transform="translate(101.24 336.52)">12%</text></g><g class="cls-10"><text class="cls-3" transform="translate(104.45 365.26)">8%</text></g><g class="cls-11"><text class="cls-3" transform="translate(140.73 421.89)">1930</text></g><g class="cls-12"><text class="cls-3" transform="translate(191.04 421.89)">1940</text></g><g class="cls-13"><text class="cls-3" transform="translate(249.86 421.89)">1950</text></g><g class="cls-14"><text class="cls-3" transform="translate(301.59 421.89)">1960</text></g><g class="cls-15"><text class="cls-3" transform="translate(360.41 421.89)">1970</text></g><g class="cls-16"><text class="cls-3" transform="translate(417.1 421.89)">1980</text></g><g class="cls-17"><text class="cls-3" transform="translate(473.09 421.89)">1980</text></g><g class="cls-18"><text class="cls-3" transform="translate(529.07 421.89)">2000</text></g><g class="cls-19"><text class="cls-3" transform="translate(584.35 421.89)">2010</text></g><g class="cls-20"><polyline class="cls-21" points="139.21 339.85 159.06 346.37 166.15 345.44 181.75 351.95 187.42 348.23 208.69 352.88 215.78 351.02 232.8 341.71 252.65 351.02 265.42 356.6 289.52 362.19 316.46 363.12 366.1 369.63 414.31 373.36 441.25 378.94 468.19 378.94 486.63 380.8 523.5 381.73 551.86 388.25 577.38 388.25 592.98 389.18"/></g><g class="cls-22"><g class="cls-23"><g class="cls-24"><g class="cls-25"><text class="cls-26" transform="translate(374 363.9)">US </text><text class="cls-27" transform="translate(395.42 363.9)">clothing</text><text class="cls-26" transform="translate(452.89 363.9)"><tspan xml:space="preserve"> expenditures as a share of disposable income</tspan></text></g></g></g></g></svg>