<svg id="Layer_1" data-name="Layer 1" xmlns="http://www.w3.org/2000/svg" xmlns:xlink="http://www.w3.org/1999/xlink" viewBox="0 0 820.98 408.63"><defs><style>.cls-1,.cls-3{fill:none;}.cls-2{clip-path:url(#clip-path);}.cls-3{stroke:#20c1c9;stroke-miterlimit:10;stroke-width:2px;}.cls-4{opacity:0.5;}.cls-5{clip-path:url(#clip-path-3);}.cls-6{font-size:12px;fill:#1d1d1b;}.cls-15,.cls-6{font-family:KozGoPro-ExtraLight-83pv-RKSJ-H, Kozuka Gothic Pro;}.cls-7{clip-path:url(#clip-path-4);}.cls-8{clip-path:url(#clip-path-5);}.cls-9{clip-path:url(#clip-path-6);}.cls-10{clip-path:url(#clip-path-7);}.cls-11{clip-path:url(#clip-path-8);}.cls-12{clip-path:url(#clip-path-9);}.cls-13{clip-path:url(#clip-path-10);}.cls-14{clip-path:url(#clip-path-11);}.cls-15{font-size:15px;fill:#20c1c9;}</style><clipPath id="clip-path"><rect class="cls-1" x="303.1" y="89.18" width="420.91" height="268.57"/></clipPath><clipPath id="clip-path-3"><rect class="cls-1" x="666.32" y="89.18" width="57.68" height="24.01"/></clipPath><clipPath id="clip-path-4"><rect class="cls-1" x="666.32" y="120.36" width="57.68" height="24.01"/></clipPath><clipPath id="clip-path-5"><rect class="cls-1" x="666.32" y="150.84" width="57.68" height="24.01"/></clipPath><clipPath id="clip-path-6"><rect class="cls-1" x="666.32" y="181.31" width="57.68" height="24.01"/></clipPath><clipPath id="clip-path-7"><rect class="cls-1" x="666.32" y="211.07" width="57.68" height="24.01"/></clipPath><clipPath id="clip-path-8"><rect class="cls-1" x="666.32" y="242.96" width="57.68" height="24.01"/></clipPath><clipPath id="clip-path-9"><rect class="cls-1" x="666.32" y="333.74" width="57.68" height="24.01"/></clipPath><clipPath id="clip-path-10"><rect class="cls-1" x="666.32" y="303.27" width="57.68" height="24.01"/></clipPath><clipPath id="clip-path-11"><rect class="cls-1" x="666.32" y="274.92" width="57.68" height="24.01"/></clipPath></defs><title>whats_not_driving_costs</title><g class="cls-2"><g class="cls-2"><polyline class="cls-3" points="303.28 129.49 341.55 136.57 375.56 126.65 411 142.24 445.01 149.33 476.19 215.94 510.21 241.46 542.81 286.81 578.24 293.9 610.84 295.32 643.43 293.9"/><g class="cls-4"><g class="cls-5"><text class="cls-6" transform="translate(688.17 105.72)">9,k</text></g></g><g class="cls-4"><g class="cls-7"><text class="cls-6" transform="translate(689.24 136.9)">8k</text></g></g><g class="cls-4"><g class="cls-8"><text class="cls-6" transform="translate(689.24 167.38)">7k</text></g></g><g class="cls-4"><g class="cls-9"><text class="cls-6" transform="translate(689.24 197.85)">6k</text></g></g><g class="cls-4"><g class="cls-10"><text class="cls-6" transform="translate(689.24 227.61)">5k</text></g></g><g class="cls-4"><g class="cls-11"><text class="cls-6" transform="translate(689.24 259.5)">4k</text></g></g><g class="cls-4"><g class="cls-12"><text class="cls-6" transform="translate(689.24 350.28)">1k</text></g></g><g class="cls-4"><g class="cls-13"><text class="cls-6" transform="translate(689.24 319.81)">2k</text></g></g><g class="cls-4"><g class="cls-14"><text class="cls-6" transform="translate(689.24 291.46)">3k</text></g></g></g></g><text class="cls-15" transform="translate(209.1 112.34)">central city population per square mile, USA</text></svg>